<?xml version="1.0" encoding="utf-8"?>
<!-- Generator: Adobe Illustrator 23.0.1, SVG Export Plug-In . SVG Version: 6.00 Build 0)  -->
<svg version="1.1" id="Layer_1" xmlns="http://www.w3.org/2000/svg" xmlns:xlink="http://www.w3.org/1999/xlink" x="0px" y="0px"
	 viewBox="0 0 1248.2 569.4" style="enable-background:new 0 0 1248.2 569.4;" xml:space="preserve">
<style type="text/css">
	.st0{fill:#282828;}
	.st1{fill:#FFFFFF;}
</style>
<path class="st0" d="M2030.8,1810.7c-46.5-7.8-63.4-16.6-112.3-40.1c-48.9-23.4-67.4-77.5-67.4-77.5c2.3-20.5,12-82.2,63.1-123.9
	c13-10.6,26.3-18,38.3-23.1c-190.1-40.1-290.2,120.1-323.5,146.3c-19.5,15.3-176.9,87.4-206,81.3c-0.4-0.1-0.7-0.2-0.7-0.2
	c-27.3-7.3-50.7,20-50.7,20l-8.8,10.8c-126.7,40.2-135.9,81.9-135.9,81.9s6,60.6,151.1,117c0,0,3.7-2.5,10.4-6.1l0.5-0.3l5.5,7.4
	c0,0,3.2-8.4,9.9-14.4l5.6-2.6c2.5-1,5.1-1.9,7.8-2.9l0.3-0.1l7,15.7c0,0,1.6-12.7,10.4-20.6l6.3-1.8c0.5-0.1,1-0.2,1.5-0.3
	c3.9-0.8,7.9-1.6,12.1-2.2l4.6,24.3c0.1-0.4,5.7-20.4,17.9-26.4c0.3-0.1,0.6-0.1,1-0.1c3-0.1,6-0.1,9.1-0.1v0l0.9,6.2l3.1,22.1
	c0,0,11.3-27.9,19.5-26.7c3.5,0.4,6.9,1,10.5,1.6l1,30c0.2-0.6,6.4-19.5,17.9-25.6c2.4,0.7,4.8,1.4,7.2,2.2l-4.8,33.8
	c0,0,16.7-29.6,28.2-24.8c0.1,0,0.2,0.1,0.3,0.1c0.1,0,0.2,0.1,0.3,0.2c1.5,0.7,3,1.4,4.5,2.1l-9.5,37.2
	c0.4-0.6,17.4-25.1,31.9-24.8c1.8,1.1,3.5,2.2,5.3,3.4c1,0.6,1.9,1.3,2.9,1.9l-15,31.5c0,0,18.6-14.8,32.1-19.1
	c0.1,0.1,0.2,0.2,0.3,0.2c0,0,21,19.5-21.1,50.6c0,0,0,0,0,0c0.9,0.7,39.8,30.1,134.7-28.5c1.4,1.7,2.4,2.8,2.8,3.3
	c0,0.1,0.1,0.1,0.1,0.2c0,0.1,0.1,0.1,0.1,0.1c57.4,69.6,148.2,113.5,148.2,113.5c-56.9-146-36-150-36-150
	c121.9-93.3,222-105.1,222-105.1s41.3-8.6,118,13.3l122.8,83.5c96.4,67.4,159,42.7,159,42.7l-46.3-57.7l-28.7,0.4
	c-72.9-59.8-139.3-169.4-139.3-169.4c-40.9-17.8-33.6-18.4-33.6-18.4c5.6-3,23.9,0.6,23.9,0.6c-11-26.8,34.9-155.1,37.2-174.4
	c2-16.7,37.6-94.2,37.6-94.2c-65.1,12.2-101.1,58.6-101.1,58.6c-20.7,59.6-39.1,90.5-39.1,90.5s-18.4,61.7-73.3,99.2
	S2030.8,1810.7,2030.8,1810.7z"/>
<g>
	<path class="st1" d="M1306.9,1915c-7.3,0-14-1.2-20.2-3.5c-6.2-2.3-11.5-5.8-15.9-10.5c-4.4-4.6-7.9-10.4-10.3-17.3
		c-2.4-6.9-3.7-14.9-3.7-24c0-8.5,1.2-16.1,3.5-23c2.3-6.9,5.7-12.8,10.2-17.7c4.3-4.7,9.6-8.4,15.9-11c6.3-2.6,13.2-3.9,20.7-3.9
		c4.1,0,7.9,0.3,11.2,0.8c3.3,0.5,6.4,1.2,9.2,2c2.9,0.9,5.6,1.9,8,3c2.4,1.1,4.5,2.2,6.3,3.1v25.9h-2.9c-1.2-1.1-2.8-2.5-4.7-4.1
		c-1.9-1.6-4-3.1-6.4-4.6c-2.4-1.5-5-2.8-7.9-3.8c-2.8-1-5.8-1.6-9-1.6c-3.6,0-6.9,0.6-10.2,1.8c-3.2,1.2-6.2,3.2-8.9,6
		c-2.6,2.7-4.7,6.3-6.3,10.8c-1.6,4.5-2.4,9.9-2.4,16.3c0,6.7,0.9,12.3,2.6,16.7c1.7,4.5,3.9,8,6.6,10.6c2.7,2.6,5.7,4.5,9,5.6
		c3.3,1.1,6.6,1.7,9.8,1.7c3.1,0,6.1-0.5,9.1-1.5c3-1,5.8-2.4,8.3-4.1c2.2-1.4,4.2-2.8,6-4.4c1.8-1.6,3.4-2.9,4.6-4.1h2.6v25.5
		c-2.5,1.2-4.8,2.3-7.1,3.4c-2.2,1.1-4.6,2-7.1,2.7c-3.2,1-6.2,1.8-9,2.3C1315.7,1914.7,1311.8,1915,1306.9,1915z"/>
	<path class="st1" d="M1448.3,1912.9H1423v-47h-37.4v47h-25.3v-106.7h25.3v39h37.4v-39h25.3V1912.9z"/>
	<path class="st1" d="M1544.4,1912.9h-71v-106.7h71v20.6h-45.8v18.4h42.5v20.6h-42.5v26.4h45.8V1912.9z"/>
	<path class="st1" d="M1656.4,1912.9h-26.2l-6.8-21.6h-36.3l-6.8,21.6h-25.5l36.3-106.7h29.2L1656.4,1912.9z M1617.3,1871.8
		l-12.1-38.2l-12.1,38.2H1617.3z"/>
	<path class="st1" d="M1751.6,1839.9c0,4.8-0.8,9.4-2.3,14c-1.5,4.6-3.7,8.4-6.6,11.5c-3.9,4.2-8.3,7.4-13.1,9.5
		c-4.8,2.1-10.8,3.2-18,3.2h-15.8v34.7h-25.3v-106.7h41.7c6.2,0,11.5,0.6,15.8,1.8c4.3,1.2,8.1,2.9,11.4,5.3c4,2.8,7,6.4,9.1,10.8
		C1750.6,1828.5,1751.6,1833.8,1751.6,1839.9z M1725.4,1840.5c0-3-0.7-5.6-2.2-7.8c-1.5-2.2-3.2-3.7-5.2-4.5
		c-2.6-1.1-5.2-1.8-7.7-1.9c-2.5-0.1-5.8-0.2-10-0.2h-4.4v31.9h7.3c4.3,0,7.9-0.3,10.7-0.9c2.8-0.6,5.1-1.7,7-3.4
		c1.6-1.5,2.8-3.3,3.5-5.5C1725.1,1846.2,1725.4,1843.6,1725.4,1840.5z"/>
	<path class="st1" d="M1848.2,1879.4c0,10.5-4.1,19-12.3,25.6c-8.2,6.6-19.3,9.9-33.4,9.9c-8.1,0-15.2-0.8-21.3-2.3
		c-6-1.6-11.7-3.5-17-5.9V1881h2.8c5.2,4.5,11.1,8,17.6,10.5c6.5,2.4,12.7,3.7,18.7,3.7c1.5,0,3.6-0.1,6.1-0.4
		c2.5-0.3,4.6-0.8,6.1-1.4c1.9-0.9,3.5-1.9,4.8-3.2c1.3-1.3,1.9-3.2,1.9-5.7c0-2.3-0.9-4.4-2.7-6.1c-1.8-1.7-4.5-3-8-3.9
		c-3.7-1-7.6-1.9-11.7-2.7c-4.1-0.8-8-1.9-11.6-3.2c-8.3-2.9-14.2-6.9-17.8-11.9c-3.6-5-5.4-11.2-5.4-18.6c0-9.9,4.1-18,12.3-24.3
		c8.2-6.3,18.7-9.4,31.6-9.4c6.5,0,12.9,0.7,19.2,2c6.3,1.4,11.8,3.1,16.4,5.1v24.6h-2.7c-4-3.4-8.8-6.3-14.5-8.6
		c-5.7-2.3-11.6-3.5-17.6-3.5c-2.1,0-4.2,0.2-6.3,0.5c-2.1,0.3-4.1,0.9-6,1.8c-1.7,0.7-3.2,1.8-4.4,3.3c-1.2,1.5-1.8,3.1-1.8,5
		c0,2.8,1,5,3,6.5c2,1.5,5.7,2.9,11.2,4.1c3.6,0.8,7.1,1.6,10.4,2.4c3.3,0.8,6.9,1.8,10.7,3.2c7.5,2.7,13.1,6.3,16.7,10.9
		C1846.4,1866.1,1848.2,1872,1848.2,1879.4z"/>
	<path class="st1" d="M1953.6,1912.9h-25.3v-47h-37.4v47h-25.3v-106.7h25.3v39h37.4v-39h25.3V1912.9z"/>
	<path class="st1" d="M2069.5,1912.9h-26.2l-6.8-21.6h-36.3l-6.8,21.6h-25.5l36.3-106.7h29.2L2069.5,1912.9z M2030.4,1871.8
		l-12.1-38.2l-12.1,38.2H2030.4z"/>
	<path class="st1" d="M2178.2,1912.9h-30.9l-26.7-39.1h-11.7v39.1h-25.2v-106.7h42.5c5.8,0,10.8,0.4,15,1.1
		c4.2,0.7,8.1,2.3,11.7,4.7c3.7,2.4,6.6,5.5,8.8,9.3c2.2,3.8,3.3,8.6,3.3,14.3c0,7.9-1.7,14.3-5,19.3c-3.4,5-8.2,9.1-14.4,12.4
		L2178.2,1912.9z M2138.7,1838.9c0-2.7-0.5-5-1.5-6.9c-1-1.9-2.7-3.4-5.2-4.5c-1.7-0.8-3.7-1.2-6-1.4c-2.3-0.2-4.9-0.3-8-0.3h-9.2
		v28.7h7.8c4,0,7.4-0.2,10.2-0.6c2.7-0.4,5-1.4,6.9-2.9c1.8-1.5,3-3.1,3.9-4.9S2138.7,1841.9,2138.7,1838.9z"/>
	<path class="st1" d="M2281,1912.9h-31.1l-29.4-42.7l-5.9,7.9v34.8h-25.3v-106.7h25.3v48.3l35.1-48.3h29.4l-38.4,49.4L2281,1912.9z"
		/>
</g>
<path class="st0" d="M803.8,250c-46.5-7.1-63.4-15.1-112.3-36.3c-48.9-21.2-67.4-70.2-67.4-70.2c2.3-18.6,12-74.4,63.1-112.2
	c13-9.6,26.3-16.3,38.3-20.9C535.3-26,435.3,119.1,402,142.8c-19.5,13.9-176.9,79.1-206,73.6c-0.4-0.1-0.7-0.1-0.7-0.1
	c-27.3-6.6-50.7,18.1-50.7,18.1l-8.8,9.8C9.2,280.5,0,318.3,0,318.3s6,54.9,151.1,105.9c0,0,3.7-2.3,10.4-5.5l0.5-0.2l5.5,6.7
	c0,0,3.2-7.6,9.9-13l5.6-2.3c2.5-0.9,5.1-1.7,7.8-2.6l0.3-0.1l7,14.2c0,0,1.6-11.5,10.4-18.6l6.3-1.6c0.5-0.1,1-0.2,1.5-0.3
	c3.9-0.7,7.9-1.4,12.1-2l4.6,22c0.1-0.4,5.7-18.5,17.9-23.9c0.3-0.1,0.6-0.1,1-0.1c3-0.1,6-0.1,9.1-0.1v0l0.9,5.6l3.1,20
	c0,0,11.3-25.3,19.5-24.2c3.5,0.4,6.9,0.9,10.5,1.5l1,27.2c0.2-0.5,6.4-17.7,17.9-23.2c2.4,0.6,4.8,1.3,7.2,2l-4.8,30.6
	c0,0,16.7-26.8,28.2-22.4c0.1,0,0.2,0.1,0.3,0.1c0.1,0,0.2,0.1,0.3,0.1c1.5,0.6,3,1.3,4.5,1.9l-9.5,33.7
	c0.4-0.5,17.4-22.8,31.9-22.5c1.8,1,3.5,2,5.3,3.1c1,0.6,1.9,1.2,2.9,1.7l-15,28.5c0,0,18.6-13.4,32.1-17.3c0.1,0.1,0.2,0.1,0.3,0.2
	c0,0,21,17.6-21.1,45.8c0,0,0,0,0,0c0.9,0.6,39.8,27.2,134.7-25.8c1.4,1.5,2.4,2.6,2.8,3c0,0.1,0.1,0.1,0.1,0.1
	c0,0.1,0.1,0.1,0.1,0.1c57.4,63,148.2,102.7,148.2,102.7c-56.9-132.2-36-135.9-36-135.9c121.9-84.4,222-95.2,222-95.2
	s41.3-7.8,118,12l122.8,75.6c96.4,61,159,38.7,159,38.7l-46.3-52.3l-28.7,0.3c-72.9-54.1-139.3-153.4-139.3-153.4
	c-40.9-16.1-33.6-16.7-33.6-16.7c5.6-2.7,23.9,0.6,23.9,0.6c-11-24.3,34.9-140.4,37.2-157.9C1063.4,70.1,1099,0,1099,0
	c-65.1,11.1-101.1,53.1-101.1,53.1C977.2,107,958.7,135,958.7,135s-18.4,55.9-73.3,89.8C830.5,258.7,803.8,250,803.8,250z"/>
<g>
	<path class="st1" d="M79.9,344.5c-7.3,0-14-1.1-20.2-3.2c-6.2-2.1-11.5-5.3-15.9-9.5c-4.4-4.2-7.9-9.4-10.3-15.7
		c-2.4-6.3-3.7-13.5-3.7-21.7c0-7.7,1.2-14.6,3.5-20.8c2.3-6.2,5.7-11.6,10.2-16c4.3-4.3,9.6-7.6,15.9-9.9s13.2-3.5,20.7-3.5
		c4.1,0,7.9,0.2,11.2,0.7c3.3,0.5,6.4,1,9.2,1.8c2.9,0.8,5.6,1.7,8,2.8c2.4,1,4.5,2,6.3,2.8v23.4h-2.9c-1.2-1-2.8-2.3-4.7-3.7
		c-1.9-1.4-4-2.8-6.4-4.2c-2.4-1.4-5-2.5-7.9-3.5c-2.8-0.9-5.8-1.4-9-1.4c-3.6,0-6.9,0.6-10.2,1.7c-3.2,1.1-6.2,2.9-8.9,5.5
		c-2.6,2.5-4.7,5.7-6.3,9.8c-1.6,4.1-2.4,9-2.4,14.8c0,6,0.9,11.1,2.6,15.1c1.7,4.1,3.9,7.3,6.6,9.6c2.7,2.4,5.7,4.1,9,5.1
		c3.3,1,6.6,1.5,9.8,1.5c3.1,0,6.1-0.5,9.1-1.4c3-0.9,5.8-2.1,8.3-3.7c2.2-1.2,4.2-2.6,6-4c1.8-1.4,3.4-2.6,4.6-3.7h2.6v23.1
		c-2.5,1.1-4.8,2.1-7.1,3s-4.6,1.8-7.1,2.5c-3.2,0.9-6.2,1.6-9,2.1C88.7,344.2,84.8,344.5,79.9,344.5z"/>
	<path class="st1" d="M221.3,342.6H196V300h-37.4v42.6h-25.3V246h25.3v35.4H196V246h25.3V342.6z"/>
	<path class="st1" d="M317.4,342.6h-71V246h71v18.7h-45.8v16.7h42.5V300h-42.5v23.9h45.8V342.6z"/>
	<path class="st1" d="M429.4,342.6h-26.2l-6.8-19.5h-36.3l-6.8,19.5h-25.5L364,246h29.2L429.4,342.6z M390.3,305.4l-12.1-34.6
		l-12.1,34.6H390.3z"/>
	<path class="st1" d="M524.6,276.5c0,4.3-0.8,8.6-2.3,12.7c-1.5,4.1-3.7,7.6-6.6,10.4c-3.9,3.8-8.3,6.7-13.1,8.6
		c-4.8,1.9-10.8,2.9-18,2.9h-15.8v31.5h-25.3V246h41.7c6.2,0,11.5,0.5,15.8,1.6c4.3,1.1,8.1,2.6,11.4,4.8c4,2.6,7,5.8,9.1,9.8
		C523.6,266.1,524.6,270.9,524.6,276.5z M498.4,277c0-2.7-0.7-5.1-2.2-7c-1.5-2-3.2-3.3-5.2-4.1c-2.6-1-5.2-1.6-7.7-1.7
		c-2.5-0.1-5.8-0.2-10-0.2h-4.4v28.9h7.3c4.3,0,7.9-0.3,10.7-0.8c2.8-0.5,5.1-1.6,7-3.1c1.6-1.4,2.8-3,3.5-5
		C498.1,282.1,498.4,279.8,498.4,277z"/>
	<path class="st1" d="M621.2,312.2c0,9.5-4.1,17.2-12.3,23.2c-8.2,5.9-19.3,8.9-33.4,8.9c-8.1,0-15.2-0.7-21.3-2.1
		c-6-1.4-11.7-3.2-17-5.4v-23.2h2.8c5.2,4.1,11.1,7.3,17.6,9.5c6.5,2.2,12.7,3.3,18.7,3.3c1.5,0,3.6-0.1,6.1-0.4
		c2.5-0.3,4.6-0.7,6.1-1.3c1.9-0.8,3.5-1.8,4.8-2.9c1.3-1.2,1.9-2.9,1.9-5.2c0-2.1-0.9-3.9-2.7-5.5c-1.8-1.5-4.5-2.7-8-3.5
		c-3.7-0.9-7.6-1.7-11.7-2.4c-4.1-0.8-8-1.7-11.6-2.9c-8.3-2.6-14.2-6.2-17.8-10.7c-3.6-4.5-5.4-10.1-5.4-16.8c0-9,4.1-16.3,12.3-22
		c8.2-5.7,18.7-8.5,31.6-8.5c6.5,0,12.9,0.6,19.2,1.8c6.3,1.2,11.8,2.8,16.4,4.6V273h-2.7c-4-3.1-8.8-5.7-14.5-7.8
		c-5.7-2.1-11.6-3.1-17.6-3.1c-2.1,0-4.2,0.1-6.3,0.4c-2.1,0.3-4.1,0.8-6,1.6c-1.7,0.6-3.2,1.6-4.4,3c-1.2,1.3-1.8,2.8-1.8,4.5
		c0,2.6,1,4.5,3,5.9c2,1.4,5.7,2.6,11.2,3.7c3.6,0.7,7.1,1.4,10.4,2.1c3.3,0.7,6.9,1.6,10.7,2.9c7.5,2.4,13.1,5.7,16.7,9.9
		C619.4,300.1,621.2,305.6,621.2,312.2z"/>
	<path class="st1" d="M726.6,342.6h-25.3V300h-37.4v42.6h-25.3V246h25.3v35.4h37.4V246h25.3V342.6z"/>
	<path class="st1" d="M842.5,342.6h-26.2l-6.8-19.5h-36.3l-6.8,19.5h-25.5L777,246h29.2L842.5,342.6z M803.4,305.4l-12.1-34.6
		l-12.1,34.6H803.4z"/>
	<path class="st1" d="M951.2,342.6h-30.9l-26.7-35.4h-11.7v35.4h-25.2V246h42.5c5.8,0,10.8,0.3,15,1c4.2,0.6,8.1,2.1,11.7,4.2
		c3.7,2.2,6.6,5,8.8,8.4c2.2,3.4,3.3,7.8,3.3,12.9c0,7.1-1.7,13-5,17.5c-3.4,4.5-8.2,8.2-14.4,11.2L951.2,342.6z M911.7,275.6
		c0-2.4-0.5-4.5-1.5-6.2c-1-1.7-2.7-3.1-5.2-4.1c-1.7-0.7-3.7-1.1-6-1.3c-2.3-0.2-4.9-0.2-8-0.2h-9.2v26h7.8c4,0,7.4-0.2,10.2-0.6
		s5-1.3,6.9-2.7c1.8-1.3,3-2.8,3.9-4.4C911.3,280.5,911.7,278.3,911.7,275.6z"/>
	<path class="st1" d="M1054,342.6h-31.1l-29.4-38.7l-5.9,7.1v31.5h-25.3V246h25.3v43.8l35.1-43.8h29.4l-38.4,44.7L1054,342.6z"/>
</g>
<path class="st0" d="M1992.3,795.6l-12.1,38.2h24.2L1992.3,795.6z M2110.2,794.8c-1.5-2.2-3.2-3.7-5.2-4.5c-2.6-1.1-5.2-1.8-7.7-1.9
	c-2.5-0.1-5.8-0.2-10-0.2h-4.4V820h7.3c4.3,0,7.9-0.3,10.6-0.9c2.8-0.6,5.1-1.7,7-3.4c1.6-1.5,2.8-3.3,3.5-5.5
	c0.7-2.1,1.1-4.7,1.1-7.8C2112.4,799.5,2111.7,796.9,2110.2,794.8z M2110.2,794.8c-1.5-2.2-3.2-3.7-5.2-4.5
	c-2.6-1.1-5.2-1.8-7.7-1.9c-2.5-0.1-5.8-0.2-10-0.2h-4.4V820h7.3c4.3,0,7.9-0.3,10.6-0.9c2.8-0.6,5.1-1.7,7-3.4
	c1.6-1.5,2.8-3.3,3.5-5.5c0.7-2.1,1.1-4.7,1.1-7.8C2112.4,799.5,2111.7,796.9,2110.2,794.8z M1992.3,795.6l-12.1,38.2h24.2
	L1992.3,795.6z M1992.3,795.6l-12.1,38.2h24.2L1992.3,795.6z M2110.2,794.8c-1.5-2.2-3.2-3.7-5.2-4.5c-2.6-1.1-5.2-1.8-7.7-1.9
	c-2.5-0.1-5.8-0.2-10-0.2h-4.4V820h7.3c4.3,0,7.9-0.3,10.6-0.9c2.8-0.6,5.1-1.7,7-3.4c1.6-1.5,2.8-3.3,3.5-5.5
	c0.7-2.1,1.1-4.7,1.1-7.8C2112.4,799.5,2111.7,796.9,2110.2,794.8z M2110.2,794.8c-1.5-2.2-3.2-3.7-5.2-4.5
	c-2.6-1.1-5.2-1.8-7.7-1.9c-2.5-0.1-5.8-0.2-10-0.2h-4.4V820h7.3c4.3,0,7.9-0.3,10.6-0.9c2.8-0.6,5.1-1.7,7-3.4
	c1.6-1.5,2.8-3.3,3.5-5.5c0.7-2.1,1.1-4.7,1.1-7.8C2112.4,799.5,2111.7,796.9,2110.2,794.8z M1992.3,795.6l-12.1,38.2h24.2
	L1992.3,795.6z M2405.3,795.6l-12.1,38.2h24.2L2405.3,795.6z M2524.2,794c-1-1.9-2.8-3.4-5.2-4.5c-1.7-0.8-3.7-1.2-6-1.4
	c-2.3-0.2-4.9-0.3-8-0.3h-9.2v28.7h7.8c4,0,7.4-0.2,10.1-0.6c2.7-0.4,5-1.4,6.9-2.9c1.8-1.5,3-3.1,3.8-4.9c0.8-1.8,1.2-4.2,1.2-7.2
	C2525.7,798.2,2525.2,796,2524.2,794z M2507.5,835.8h-11.7v33c10.1,0.4,22.5,1.6,37,4L2507.5,835.8z M2815.9,952l-28.7,0.4
	c-63.8-52.3-122.6-142.8-136.3-164.6l-23.2,29.8l40.3,57.3h-31.1l-29.4-42.7l-5.9,7.9v34.8h-25.3V768.2h25.3v48.3l29.8-41.1
	c-22.2-10.5-17.1-11-17.1-11c5.6-3,23.9,0.6,23.9,0.6c-11-26.8,34.9-155.1,37.2-174.4c2-16.7,37.6-94.2,37.6-94.2
	c-65.1,12.2-101.1,58.6-101.1,58.6c-20.7,59.6-39.1,90.5-39.1,90.5s-18.4,61.7-73.3,99.2c-42.4,28.9-68,29.8-77.5,28.7l33.3,97.9
	c4.6-0.9,7.1-1.1,7.1-1.1s2.8-0.6,8.2-1.1v-101h42.5c5.8,0,10.8,0.4,15,1.1c4.2,0.7,8.1,2.3,11.7,4.7c3.7,2.4,6.6,5.5,8.8,9.3
	c2.2,3.8,3.3,8.6,3.3,14.3c0,7.9-1.7,14.3-5,19.3c-3.4,5-8.2,9.1-14.4,12.4l32.8,45.7h-20.6c10.9,2.1,22.8,5,35.8,8.7l122.8,83.5
	c96.4,67.4,159,42.7,159,42.7L2815.9,952z M2518.9,789.5c-1.7-0.8-3.7-1.2-6-1.4c-2.3-0.2-4.9-0.3-8-0.3h-9.2v28.7h7.8
	c4,0,7.4-0.2,10.1-0.6c2.7-0.4,5-1.4,6.9-2.9c1.8-1.5,3-3.1,3.8-4.9c0.8-1.8,1.2-4.2,1.2-7.2c0-2.7-0.5-5-1.5-6.9
	C2523.1,792.1,2521.4,790.6,2518.9,789.5z M2393.2,833.8h24.2l-12.1-38.2L2393.2,833.8z M1992.3,795.6l-12.1,38.2h24.2L1992.3,795.6
	z M2110.2,794.8c-1.5-2.2-3.2-3.7-5.2-4.5c-2.6-1.1-5.2-1.8-7.7-1.9c-2.5-0.1-5.8-0.2-10-0.2h-4.4V820h7.3c4.3,0,7.9-0.3,10.6-0.9
	c2.8-0.6,5.1-1.7,7-3.4c1.6-1.5,2.8-3.3,3.5-5.5c0.7-2.1,1.1-4.7,1.1-7.8C2112.4,799.5,2111.7,796.9,2110.2,794.8z M2110.2,794.8
	c-1.5-2.2-3.2-3.7-5.2-4.5c-2.6-1.1-5.2-1.8-7.7-1.9c-2.5-0.1-5.8-0.2-10-0.2h-4.4V820h7.3c4.3,0,7.9-0.3,10.6-0.9
	c2.8-0.6,5.1-1.7,7-3.4c1.6-1.5,2.8-3.3,3.5-5.5c0.7-2.1,1.1-4.7,1.1-7.8C2112.4,799.5,2111.7,796.9,2110.2,794.8z M1992.3,795.6
	l-12.1,38.2h24.2L1992.3,795.6z M2240.3,975.4c86.7-66.3,162.4-91.5,198.9-100.5h-8.9l-6.8-21.6h-36.3l-6.8,21.6h-25.5l36.3-106.7
	h4.1c-31-7-49.6-16.5-89.6-35.6c-48.9-23.4-67.4-77.5-67.4-77.5c2.3-20.5,12-82.2,63.1-124c13-10.6,26.3-18,38.3-23.1
	c-190.1-40.1-290.2,120.1-323.5,146.3c-19.5,15.3-176.9,87.4-206,81.3c-0.4-0.1-0.7-0.1-0.7-0.1c-27.3-7.3-50.7,20-50.7,20
	l-8.8,10.8c-8.2,2.6-15.9,5.2-23.2,7.8c-12.2,4.4-23,8.7-32.7,13c-5.1,2.2-9.8,4.4-14.2,6.6c-0.3,0.3-0.7,0.6-1,1
	c-2.6,2.7-4.7,6.3-6.3,10.8c-1.6,4.5-2.4,9.9-2.4,16.3c0,6.7,0.9,12.3,2.6,16.7c1.7,4.5,3.9,8,6.6,10.6c2.7,2.6,5.7,4.5,9,5.6
	s6.6,1.7,9.8,1.7c3.1,0,6.1-0.5,9.1-1.5s5.8-2.3,8.3-4.1c2.2-1.4,4.2-2.8,6-4.4c1.8-1.6,3.4-2.9,4.6-4.1h2.6v25.5
	c-2.5,1.2-4.8,2.3-7.1,3.4s-4.6,2-7.1,2.7c-3.2,1-6.2,1.8-9,2.3c-2.8,0.5-6.7,0.8-11.6,0.8c-7.3,0-14-1.2-20.2-3.5
	c-6.2-2.3-11.5-5.8-15.9-10.5c-4.4-4.6-7.9-10.4-10.3-17.3c-2.4-6.9-3.7-14.9-3.7-24c0-2.4,0.1-4.7,0.3-7
	c-26.9,19.5-30,33.4-30,33.4s6,60.6,151.1,117c0,0,3.7-2.5,10.4-6.1l0.6-0.3l5.5,7.4c0,0,3.2-8.4,9.9-14.4l5.6-2.6
	c2.5-1,5.1-1.9,7.8-2.9l0.3-0.1l7.1,15.7c0,0,1.6-12.7,10.3-20.6l6.3-1.8c0.5-0.1,1-0.2,1.5-0.3c3.9-0.8,7.9-1.6,12.1-2.2l4.6,24.3
	c0.1-0.4,5.7-20.4,17.9-26.4c0.3-0.1,0.7-0.1,1-0.1c3-0.1,6-0.1,9.1-0.1v0l0.9,6.2l3.1,22.1c0,0,11.3-27.9,19.5-26.7
	c3.5,0.4,7,1,10.5,1.6l1,30c0.2-0.6,6.5-19.5,17.9-25.6c2.4,0.7,4.8,1.4,7.2,2.2l-4.8,33.8c0,0,16.7-29.6,28.2-24.8
	c0.1,0,0.2,0.1,0.3,0.1c0.1,0,0.2,0.1,0.3,0.2c1.5,0.7,3,1.4,4.5,2.1l-9.5,37.2c0.4-0.6,17.4-25.1,31.9-24.8
	c1.8,1.1,3.5,2.2,5.3,3.4c1,0.6,1.9,1.3,2.9,1.9l-15,31.5c0.6-0.5,18.8-14.9,32.1-19c0.1,0.1,0.2,0.2,0.3,0.2c0,0,21,19.5-21.1,50.6
	l0,0c0.9,0.7,39.8,30.1,134.7-28.5c1.4,1.7,2.4,2.8,2.8,3.3c0,0.1,0.1,0.1,0.1,0.2c0,0.1,0.1,0.1,0.1,0.1
	c57.4,69.6,148.2,113.4,148.2,113.4C2219.4,979.4,2240.3,975.4,2240.3,975.4z M2252.6,768.2h25.3v39h37.4v-39h25.3v106.7h-25.3v-47
	h-37.4v47h-25.3V768.2z M1835.3,874.9H1810v-47h-37.4v47h-25.3V768.2h25.3v39h37.4v-39h25.3V874.9z M1931.4,788.9h-45.8v18.4h42.5
	v20.6h-42.5v26.4h45.8v20.6h-71.1V768.2h71.1V788.9z M2017.3,874.9l-6.8-21.6h-36.3l-6.8,21.6h-25.5l36.3-106.7h29.2l36.3,106.7
	H2017.3z M2136.3,815.9c-1.5,4.6-3.7,8.4-6.6,11.5c-3.9,4.2-8.3,7.4-13.1,9.5c-4.8,2.1-10.8,3.2-18,3.2h-15.8v34.8h-25.3V768.2h41.7
	c6.3,0,11.5,0.6,15.8,1.8s8.1,2.9,11.4,5.3c4,2.8,7,6.4,9.1,10.8c2.1,4.4,3.1,9.7,3.1,15.8C2138.6,806.7,2137.9,811.4,2136.3,815.9z
	 M2222.9,867c-8.2,6.6-19.3,9.8-33.4,9.8c-8.1,0-15.2-0.8-21.3-2.3c-6-1.6-11.7-3.5-17-5.9V843h2.8c5.2,4.5,11.1,8,17.6,10.5
	c6.5,2.4,12.7,3.7,18.7,3.7c1.5,0,3.6-0.1,6.1-0.4c2.5-0.3,4.6-0.8,6.1-1.4c1.9-0.9,3.5-1.9,4.8-3.2c1.3-1.3,1.9-3.2,1.9-5.7
	c0-2.3-0.9-4.4-2.7-6.1c-1.8-1.7-4.5-3-8-3.9c-3.7-1-7.6-1.8-11.7-2.7c-4.1-0.8-8-1.9-11.6-3.2c-8.3-2.9-14.2-6.9-17.9-11.8
	c-3.6-5-5.4-11.2-5.4-18.6c0-9.9,4.1-18,12.3-24.3c8.2-6.3,18.8-9.4,31.6-9.4c6.5,0,12.9,0.7,19.2,2c6.3,1.4,11.8,3.1,16.4,5.1V798
	h-2.7c-4-3.4-8.8-6.3-14.6-8.6c-5.7-2.3-11.6-3.5-17.6-3.5c-2.1,0-4.2,0.2-6.3,0.5c-2.1,0.3-4.1,0.9-6,1.8c-1.7,0.7-3.2,1.8-4.4,3.3
	c-1.2,1.5-1.8,3.1-1.8,5c0,2.8,1,5,3,6.5c2,1.5,5.7,2.9,11.2,4.1c3.6,0.8,7.1,1.6,10.4,2.4c3.3,0.8,6.9,1.8,10.7,3.2
	c7.5,2.7,13.1,6.3,16.7,10.9c3.6,4.6,5.4,10.6,5.4,17.9C2235.2,851.9,2231.1,860.4,2222.9,867z M2105,790.2
	c-2.6-1.1-5.2-1.8-7.7-1.9c-2.5-0.1-5.8-0.2-10-0.2h-4.4V820h7.3c4.3,0,7.9-0.3,10.6-0.9c2.8-0.6,5.1-1.7,7-3.4
	c1.6-1.5,2.8-3.3,3.5-5.5c0.7-2.1,1.1-4.7,1.1-7.8c0-3-0.8-5.6-2.3-7.8C2108.7,792.6,2107,791.1,2105,790.2z M1980.2,833.8h24.2
	l-12.1-38.2L1980.2,833.8z M1992.3,795.6l-12.1,38.2h24.2L1992.3,795.6z M2110.2,794.8c-1.5-2.2-3.2-3.7-5.2-4.5
	c-2.6-1.1-5.2-1.8-7.7-1.9c-2.5-0.1-5.8-0.2-10-0.2h-4.4V820h7.3c4.3,0,7.9-0.3,10.6-0.9c2.8-0.6,5.1-1.7,7-3.4
	c1.6-1.5,2.8-3.3,3.5-5.5c0.7-2.1,1.1-4.7,1.1-7.8C2112.4,799.5,2111.7,796.9,2110.2,794.8z M2405.3,795.6l-12.1,38.2h24.2
	L2405.3,795.6z M2110.2,794.8c-1.5-2.2-3.2-3.7-5.2-4.5c-2.6-1.1-5.2-1.8-7.7-1.9c-2.5-0.1-5.8-0.2-10-0.2h-4.4V820h7.3
	c4.3,0,7.9-0.3,10.6-0.9c2.8-0.6,5.1-1.7,7-3.4c1.6-1.5,2.8-3.3,3.5-5.5c0.7-2.1,1.1-4.7,1.1-7.8
	C2112.4,799.5,2111.7,796.9,2110.2,794.8z M1992.3,795.6l-12.1,38.2h24.2L1992.3,795.6z M1992.3,795.6l-12.1,38.2h24.2L1992.3,795.6
	z M2110.2,794.8c-1.5-2.2-3.2-3.7-5.2-4.5c-2.6-1.1-5.2-1.8-7.7-1.9c-2.5-0.1-5.8-0.2-10-0.2h-4.4V820h7.3c4.3,0,7.9-0.3,10.6-0.9
	c2.8-0.6,5.1-1.7,7-3.4c1.6-1.5,2.8-3.3,3.5-5.5c0.7-2.1,1.1-4.7,1.1-7.8C2112.4,799.5,2111.7,796.9,2110.2,794.8z M2110.2,794.8
	c-1.5-2.2-3.2-3.7-5.2-4.5c-2.6-1.1-5.2-1.8-7.7-1.9c-2.5-0.1-5.8-0.2-10-0.2h-4.4V820h7.3c4.3,0,7.9-0.3,10.6-0.9
	c2.8-0.6,5.1-1.7,7-3.4c1.6-1.5,2.8-3.3,3.5-5.5c0.7-2.1,1.1-4.7,1.1-7.8C2112.4,799.5,2111.7,796.9,2110.2,794.8z M1992.3,795.6
	l-12.1,38.2h24.2L1992.3,795.6z M1992.3,795.6l-12.1,38.2h24.2L1992.3,795.6z M1992.3,795.6l-12.1,38.2h24.2L1992.3,795.6z"/>
</svg>
