<?xml version="1.0" encoding="utf-8"?>
<!-- Generator: Adobe Illustrator 23.0.1, SVG Export Plug-In . SVG Version: 6.00 Build 0)  -->
<svg version="1.1" xmlns="http://www.w3.org/2000/svg" xmlns:xlink="http://www.w3.org/1999/xlink" x="0px" y="0px"
	 viewBox="0 0 24 24" style="enable-background:new 0 0 24 24;" xml:space="preserve">
<style type="text/css">
	.st0{display:none;}
	.st1{display:inline;}
	.st2{fill:#FFFFFF;}
	.st3{fill:#FFFFFF;stroke:#FFFFFF;stroke-width:0.4724;stroke-miterlimit:10;}
</style>
<g id="Layer_2" class="st0">
	<rect x="-5.9" y="-3.7" class="st1" width="37.6" height="36.3"/>
</g>
<g id="Layer_1">
	<path class="st2" d="M17.1,14H6.8c-0.8,0-0.8,1.2,0,1.2h10.3C17.9,15.2,17.9,14,17.1,14z M17.1,19H6.8c-0.8,0-0.8,1.2,0,1.2h10.3
		C17.9,20.2,17.9,19,17.1,19z M17.1,16.5H6.8c-0.8,0-0.8,1.2,0,1.2h10.3C17.9,17.7,17.9,16.5,17.1,16.5z M17.1,19H6.8
		c-0.8,0-0.8,1.2,0,1.2h10.3C17.9,20.2,17.9,19,17.1,19z M17.1,16.5H6.8c-0.8,0-0.8,1.2,0,1.2h10.3C17.9,17.7,17.9,16.5,17.1,16.5z
		 M17.1,14H6.8c-0.8,0-0.8,1.2,0,1.2h10.3C17.9,15.2,17.9,14,17.1,14z M6.8,15.2h10.3c0.8,0,0.8-1.2,0-1.2H6.8C6,14,6,15.2,6.8,15.2
		z M17.1,16.5H6.8c-0.8,0-0.8,1.2,0,1.2h10.3C17.9,17.7,17.9,16.5,17.1,16.5z M17.1,19H6.8c-0.8,0-0.8,1.2,0,1.2h10.3
		C17.9,20.2,17.9,19,17.1,19z M21,4.5l-4-4c-0.1-0.1-0.2-0.2-0.4-0.2H3.4c-0.3,0-0.6,0.3-0.6,0.6v22.2c0,0.3,0.3,0.6,0.6,0.6h17.2
		c0.3,0,0.6-0.3,0.6-0.6V4.9C21.2,4.8,21.1,4.6,21,4.5z M20,22.6H4V1.5h12.4L20,5.1V22.6z M6.8,15.2h10.3c0.8,0,0.8-1.2,0-1.2H6.8
		C6,14,6,15.2,6.8,15.2z M17.1,16.5H6.8c-0.8,0-0.8,1.2,0,1.2h10.3C17.9,17.7,17.9,16.5,17.1,16.5z M17.1,19H6.8
		c-0.8,0-0.8,1.2,0,1.2h10.3C17.9,20.2,17.9,19,17.1,19z M17.1,19H6.8c-0.8,0-0.8,1.2,0,1.2h10.3C17.9,20.2,17.9,19,17.1,19z
		 M17.1,16.5H6.8c-0.8,0-0.8,1.2,0,1.2h10.3C17.9,17.7,17.9,16.5,17.1,16.5z M17.1,14H6.8c-0.8,0-0.8,1.2,0,1.2h10.3
		C17.9,15.2,17.9,14,17.1,14z"/>
	<path class="st3" d="M11,11c-0.5,0.2-1,0.4-1.7,0.4c-0.9,0-1.6-0.3-2.1-0.8S6.4,9.2,6.4,8.3c0-1,0.3-1.8,0.9-2.4S8.6,5,9.5,5
		c0.6,0,1.1,0.1,1.5,0.3V6c-0.4-0.2-0.9-0.4-1.5-0.4c-0.7,0-1.3,0.2-1.7,0.7S7.2,7.4,7.2,8.2C7.2,9,7.4,9.6,7.8,10
		c0.4,0.4,0.9,0.7,1.6,0.7c0.6,0,1.2-0.1,1.6-0.4V11z"/>
	<path class="st3" d="M17.5,5.1l-2.3,6.2h-0.8l-2.2-6.2H13l1.7,4.9c0.1,0.2,0.1,0.3,0.1,0.5h0c0-0.2,0.1-0.4,0.1-0.6l1.7-4.9H17.5z"
		/>
</g>
</svg>
