<?xml version="1.0" encoding="utf-8"?>
<!-- Generator: Adobe Illustrator 23.0.1, SVG Export Plug-In . SVG Version: 6.00 Build 0)  -->
<svg version="1.1" id="Layer_1" xmlns="http://www.w3.org/2000/svg" xmlns:xlink="http://www.w3.org/1999/xlink" x="0px" y="0px"
	 viewBox="0 0 24 24" style="enable-background:new 0 0 24 24;" xml:space="preserve">
<style type="text/css">
	.st0{fill:#FFFFFF;}
</style>
<g id="Layer_x0020_1">
	<path class="st0" d="M12,7.9c1.5,0,2.8,1.3,2.8,2.8V12c0,0.3-0.3,0.6-0.6,0.6H9.8c-0.3,0-0.6-0.3-0.6-0.6v-1.3
		C9.2,9.2,10.5,7.9,12,7.9z M6.8,15.2c-0.8,0-0.8-1.2,0-1.2h10.3c0.8,0,0.8,1.2,0,1.2C17.2,15.2,6.8,15.2,6.8,15.2z M6.8,20.2
		c-0.8,0-0.8-1.2,0-1.2h10.3c0.8,0,0.8,1.2,0,1.2C17.2,20.2,6.8,20.2,6.8,20.2z M6.8,17.7c-0.8,0-0.8-1.2,0-1.2h10.3
		c0.8,0,0.8,1.2,0,1.2C17.2,17.7,6.8,17.7,6.8,17.7z M3.4,0.3h13.2c0.2,0,0.3,0.1,0.4,0.2l4,4c0.1,0.1,0.2,0.3,0.2,0.4v18.2
		c0,0.3-0.3,0.6-0.6,0.6H3.4c-0.3,0-0.6-0.3-0.6-0.6V0.9C2.8,0.6,3.1,0.3,3.4,0.3z M16.4,1.5H4v21.1h16V5.1
		C20,5.1,16.4,1.5,16.4,1.5z M12,3.1c1.3,0,2.4,1.1,2.4,2.4c0,1.3-1.1,2.4-2.4,2.4S9.6,6.8,9.6,5.5C9.6,4.1,10.7,3.1,12,3.1z
		 M12,4.3c-0.7,0-1.2,0.5-1.2,1.2c0,0.7,0.5,1.2,1.2,1.2c0.7,0,1.2-0.5,1.2-1.2C13.2,4.8,12.7,4.3,12,4.3z M12,9.1
		c-0.9,0-1.6,0.7-1.6,1.6v0.7h3.2v-0.7C13.6,9.8,12.9,9.1,12,9.1z"/>
</g>
</svg>
