<?xml version="1.0" encoding="utf-8"?>
<!-- Generator: Adobe Illustrator 23.0.1, SVG Export Plug-In . SVG Version: 6.00 Build 0)  -->
<svg version="1.1" id="Layer_1" xmlns="http://www.w3.org/2000/svg" xmlns:xlink="http://www.w3.org/1999/xlink" x="0px" y="0px"
	 viewBox="0 0 754 122.5" style="enable-background:new 0 0 754 122.5;" xml:space="preserve">
<style type="text/css">
	.st0{fill:#313146;}
	.st1{fill:#FFFFFF;}
</style>
<path class="st0" d="M740.9,122.5H13.1c-7.2,0-13.1-5.9-13.1-13.1V13.1C0,5.9,5.9,0,13.1,0h727.8c7.2,0,13.1,5.9,13.1,13.1v96.3
	C754,116.6,748.1,122.5,740.9,122.5z"/>
<g>
	<title></title>
	<path class="st1" d="M640.9,61.9c0,12.7-4.3,24-13.2,33.9c-3.2,3.7-5.8,5.5-7.6,5.5c-0.6,0-1.3-0.2-1.8-0.6
		c-0.5-0.5-0.8-1.1-0.8-1.8c0-1,1.1-2.4,3.4-4.5c9.2-8.8,13.8-19.8,13.8-32.8c0-14.5-4.8-26.2-14.3-35.2c-1.9-1.7-2.9-3.2-2.9-4.3
		c0-0.6,0.3-1.3,0.8-1.8c0.5-0.5,1.1-0.8,1.8-0.8c2.1,0,5.3,2.6,9.4,7.8C637.2,36.9,641,48.5,641,62L640.9,61.9z M519.2,58.6
		c0-12.7,4.3-24,13.2-33.9c3.2-3.7,5.8-5.5,7.6-5.5c0.6,0,1.3,0.2,1.7,0.6c0.5,0.5,0.8,1,0.8,1.6c0,1-1.1,2.4-3.4,4.7
		c-9,8.9-13.8,19.8-13.8,32.8c0,14.5,4.8,26.2,14.3,35.2c1.9,1.7,2.9,3.2,2.9,4.3c0,0.6-0.3,1.3-0.8,1.8c-0.5,0.5-1.1,0.8-1.8,0.8
		c-2.2,0-5.2-2.6-9.3-7.7C522.9,83.9,519.2,72.3,519.2,58.6z M609,93.8h-55.8c-2.1,0-3.9-2-3.3-4.5c0.4-1.5,1.8-2.5,3.4-2.5H609
		c1.8,0,3.4,1.5,3.4,3.5C612.4,92.3,611,93.8,609,93.8z M578.6,48.2c1-0.1,1.7,3.1,1.8,3.8c0.2,1.8-0.4,3.5-1.2,5.1
		c-3,5.9-10,10.7-8.2,18.2c0.8,3.2,2.5,5.5,7.7,8.2c-1.8,0.6-4.2-0.6-5.6-1.5c-6.1-4.1-10-10.9-9.6-18.4c0.2-2.4,0.6-4.7,1.2-6.9
		c1.9-6.5,5.8-12.2,8.1-18.5c1.1-3,2-6.7,1.1-9.9c-0.5-1.6-1.3-3-2.4-4.3c-0.3-0.4-2.1-2.4-2.7-2.1c3-1.1,5.8-0.1,8.4,1.5
		c2.1,1.2,3.7,3,4.9,5c2.3,3.7,3.2,7.8,3.7,12.1c0.2,1.8-0.1,6,2,6.9c2.1,0.9,3.8-2.7,4.3-4.1c1-3.3-0.3-6.4-1.6-9.4
		c0.3,0.6,1.4,1.3,2,1.8l1.8,1.7c2.2,2.3,3.6,5.1,4.5,8.1c0.8,2.7,1.2,5.5,1.4,8.3c0.4,5.7-0.9,11.6-3.2,16.8c-1,2.4-2.3,4.6-4,6.5
		c-1.6,1.9-3.8,3.1-5.5,4.9c4.1-4.1,6.3-10.8,5.7-15.9c-0.3-2.8-1.2-5.4-3.3-8c0,0,0.2,1.8,0.4,3c0.4,2.5-1.3,5.2-3.3,4.9
		c-1.4-0.1-0.7-3.3-0.5-4.3c0.5-3-0.2-5.9-1.2-8.6c-1.1-2.6-3-4.6-6.1-4.2C579.1,48.6,578.6,48.2,578.6,48.2z"/>
</g>
<g>
	<path class="st1" d="M170.7,18c-2.7-0.6-4.9-0.8-6.9-0.8c-4.6,0-6.8,2.4-6.8,7.2v5.1h12.8v4.2H157v20.7h-5.2V33.6h-9.4v-4.2h9.4
		v-4.8c0-7.8,4.1-11.7,12.2-11.7c2,0,4.2,0.2,6.7,0.7V18z"/>
	<path class="st1" d="M175.8,25.2h4.6l0.1,5.4c1.7-2.1,3.4-3.6,5.1-4.5c1.7-0.9,3.4-1.4,5.1-1.4c3,0,5.3,1,6.9,2.9
		c1.6,2,2.3,4.9,2.2,8.7h-5.1c0.1-2.6-0.3-4.4-1.1-5.6c-0.8-1.2-2-1.7-3.5-1.7c-0.7,0-1.4,0.1-2.1,0.4c-0.7,0.2-1.4,0.6-2.1,1.2
		c-0.7,0.5-1.5,1.2-2.3,2.1c-0.8,0.8-1.7,1.8-2.6,3v18.8h-5.1V25.2z"/>
	<path class="st1" d="M229.1,38.2c0,0.7,0,1.3,0,1.8c0,0.5,0,0.9-0.1,1.4h-20.5c0,3,0.8,5.3,2.5,6.9c1.7,1.6,4.1,2.4,7.2,2.4
		c0.9,0,1.7,0,2.6-0.1c0.9-0.1,1.7-0.2,2.5-0.3c0.8-0.1,1.6-0.2,2.3-0.4c0.7-0.1,1.4-0.3,2-0.5v4.2c-1.4,0.4-2.9,0.7-4.7,0.9
		c-1.7,0.2-3.5,0.4-5.4,0.4c-2.5,0-4.7-0.3-6.5-1c-1.8-0.7-3.3-1.7-4.4-3c-1.2-1.3-2-2.9-2.6-4.7c-0.6-1.9-0.8-4-0.8-6.4
		c0-2.1,0.3-4,0.9-5.8c0.6-1.8,1.5-3.4,2.6-4.8c1.1-1.4,2.5-2.5,4.2-3.3c1.6-0.8,3.5-1.2,5.6-1.2c2,0,3.8,0.3,5.4,1s2.9,1.5,4,2.7
		c1.1,1.2,1.9,2.6,2.4,4.3C228.8,34.3,229.1,36.1,229.1,38.2z M223.9,37.5c0.1-1.3-0.1-2.5-0.4-3.6c-0.3-1.1-0.8-2-1.4-2.8
		c-0.7-0.8-1.5-1.4-2.4-1.8c-1-0.4-2.1-0.7-3.4-0.7c-1.1,0-2.1,0.2-3,0.6c-0.9,0.4-1.7,1-2.4,1.8c-0.7,0.8-1.2,1.7-1.6,2.8
		c-0.4,1.1-0.7,2.3-0.8,3.6H223.9z"/>
	<path class="st1" d="M259,38.2c0,0.7,0,1.3,0,1.8c0,0.5,0,0.9-0.1,1.4h-20.5c0,3,0.8,5.3,2.5,6.9c1.7,1.6,4.1,2.4,7.2,2.4
		c0.9,0,1.7,0,2.6-0.1c0.9-0.1,1.7-0.2,2.5-0.3c0.8-0.1,1.6-0.2,2.3-0.4c0.7-0.1,1.4-0.3,2-0.5v4.2c-1.4,0.4-2.9,0.7-4.7,0.9
		c-1.7,0.2-3.5,0.4-5.4,0.4c-2.5,0-4.7-0.3-6.5-1c-1.8-0.7-3.3-1.7-4.4-3c-1.2-1.3-2-2.9-2.6-4.7c-0.6-1.9-0.8-4-0.8-6.4
		c0-2.1,0.3-4,0.9-5.8c0.6-1.8,1.5-3.4,2.6-4.8c1.1-1.4,2.5-2.5,4.2-3.3c1.6-0.8,3.5-1.2,5.6-1.2c2,0,3.8,0.3,5.4,1
		c1.6,0.6,2.9,1.5,4,2.7c1.1,1.2,1.9,2.6,2.4,4.3C258.7,34.3,259,36.1,259,38.2z M253.7,37.5c0.1-1.3-0.1-2.5-0.4-3.6
		c-0.3-1.1-0.8-2-1.4-2.8c-0.6-0.8-1.5-1.4-2.4-1.8c-1-0.4-2.1-0.7-3.4-0.7c-1.1,0-2.1,0.2-3,0.6c-0.9,0.4-1.7,1-2.4,1.8
		c-0.7,0.8-1.2,1.7-1.6,2.8c-0.4,1.1-0.7,2.3-0.8,3.6H253.7z"/>
	<path class="st1" d="M288.4,52.9c-3,1.3-6.2,1.9-9.6,1.9c-5.4,0-9.5-1.6-12.4-4.8c-2.9-3.2-4.3-8-4.3-14.2c0-3,0.4-5.8,1.2-8.3
		c0.8-2.5,1.9-4.6,3.4-6.3s3.3-3,5.4-4c2.1-0.9,4.4-1.4,7-1.4c1.8,0,3.4,0.2,4.9,0.5c1.5,0.3,3,0.8,4.4,1.4v5.1
		c-1.4-0.8-2.8-1.3-4.3-1.7c-1.5-0.4-3.1-0.6-4.8-0.6c-1.8,0-3.4,0.3-4.8,1c-1.4,0.7-2.7,1.6-3.7,2.9c-1,1.3-1.8,2.8-2.3,4.7
		c-0.5,1.8-0.8,3.9-0.8,6.3c0,4.9,1,8.6,3,11.1s4.9,3.8,8.8,3.8c1.6,0,3.2-0.2,4.7-0.6c1.5-0.4,2.9-0.9,4.3-1.6V52.9z"/>
	<path class="st1" d="M319.4,39.5c0,2.3-0.3,4.3-1,6.2c-0.6,1.9-1.6,3.5-2.8,4.9c-1.2,1.3-2.7,2.4-4.4,3.1c-1.7,0.7-3.7,1.1-5.9,1.1
		c-2.1,0-4-0.3-5.6-1c-1.7-0.6-3.1-1.6-4.2-2.9c-1.2-1.3-2-2.8-2.6-4.7c-0.6-1.9-0.9-4-0.9-6.4c0-2.3,0.3-4.3,1-6.2
		c0.6-1.9,1.6-3.5,2.8-4.8c1.2-1.3,2.7-2.4,4.4-3.1c1.7-0.7,3.7-1.1,5.9-1.1c2.1,0,4,0.3,5.6,1c1.7,0.7,3.1,1.6,4.2,2.9
		c1.2,1.3,2,2.8,2.6,4.7C319.1,35,319.4,37.1,319.4,39.5z M314.2,39.8c0-1.8-0.2-3.4-0.6-4.7c-0.4-1.3-1-2.5-1.7-3.4
		c-0.7-0.9-1.6-1.6-2.7-2c-1.1-0.5-2.2-0.7-3.5-0.7c-1.5,0-2.8,0.3-3.9,0.9c-1.1,0.6-2,1.4-2.6,2.4c-0.7,1-1.2,2.1-1.5,3.4
		c-0.3,1.3-0.5,2.7-0.5,4.1c0,1.8,0.2,3.4,0.6,4.7c0.4,1.4,1,2.5,1.7,3.4c0.7,0.9,1.6,1.6,2.7,2c1,0.5,2.2,0.7,3.5,0.7
		c1.5,0,2.8-0.3,3.9-0.9c1.1-0.6,2-1.4,2.6-2.4c0.7-1,1.2-2.1,1.5-3.4C314.1,42.6,314.2,41.2,314.2,39.8z"/>
	<path class="st1" d="M322.3,40.4c0-2.5,0.3-4.7,1-6.6c0.7-1.9,1.6-3.6,2.9-4.9c1.3-1.3,2.8-2.3,4.5-3c1.8-0.7,3.7-1,5.9-1
		c0.9,0,1.8,0.1,2.7,0.2c0.9,0.1,1.8,0.3,2.7,0.6V13.3h5.1v41.1h-4.5l-0.2-5.5c-1.4,2.1-2.9,3.6-4.6,4.6c-1.6,1-3.4,1.5-5.4,1.5
		c-1.7,0-3.1-0.3-4.4-1c-1.3-0.7-2.3-1.7-3.2-3c-0.8-1.3-1.5-2.8-1.9-4.6C322.5,44.5,322.3,42.5,322.3,40.4z M327.5,40
		c0,3.5,0.5,6.2,1.6,7.9c1,1.7,2.5,2.6,4.4,2.6c1.3,0,2.6-0.6,4.1-1.7c1.4-1.1,2.9-2.8,4.5-5.1V30.2c-0.8-0.4-1.8-0.7-2.8-0.9
		c-1-0.2-2-0.3-3-0.3c-2.8,0-4.9,0.9-6.4,2.7C328.3,33.5,327.5,36.2,327.5,40z"/>
	<path class="st1" d="M378.3,38.2c0,0.7,0,1.3,0,1.8c0,0.5,0,0.9-0.1,1.4h-20.5c0,3,0.8,5.3,2.5,6.9c1.7,1.6,4.1,2.4,7.2,2.4
		c0.9,0,1.7,0,2.6-0.1c0.9-0.1,1.7-0.2,2.5-0.3c0.8-0.1,1.6-0.2,2.3-0.4c0.7-0.1,1.4-0.3,2-0.5v4.2c-1.4,0.4-2.9,0.7-4.7,0.9
		c-1.7,0.2-3.5,0.4-5.4,0.4c-2.5,0-4.7-0.3-6.5-1c-1.8-0.7-3.3-1.7-4.4-3c-1.2-1.3-2-2.9-2.6-4.7c-0.6-1.9-0.8-4-0.8-6.4
		c0-2.1,0.3-4,0.9-5.8c0.6-1.8,1.5-3.4,2.6-4.8c1.1-1.4,2.5-2.5,4.2-3.3c1.6-0.8,3.5-1.2,5.6-1.2c2,0,3.8,0.3,5.4,1s2.9,1.5,4,2.7
		c1.1,1.2,1.9,2.6,2.4,4.3C378.1,34.3,378.3,36.1,378.3,38.2z M373.1,37.5c0.1-1.3-0.1-2.5-0.4-3.6c-0.3-1.1-0.8-2-1.4-2.8
		c-0.6-0.8-1.5-1.4-2.4-1.8c-1-0.4-2.1-0.7-3.4-0.7c-1.1,0-2.1,0.2-3,0.6c-0.9,0.4-1.7,1-2.4,1.8c-0.7,0.8-1.2,1.7-1.6,2.8
		c-0.4,1.1-0.7,2.3-0.8,3.6H373.1z"/>
	<path class="st1" d="M407.8,52.9c-3,1.3-6.2,1.9-9.6,1.9c-5.4,0-9.5-1.6-12.4-4.8c-2.9-3.2-4.3-8-4.3-14.2c0-3,0.4-5.8,1.2-8.3
		c0.8-2.5,1.9-4.6,3.4-6.3c1.5-1.7,3.3-3,5.4-4c2.1-0.9,4.4-1.4,7-1.4c1.8,0,3.4,0.2,4.9,0.5c1.5,0.3,3,0.8,4.4,1.4v5.1
		c-1.4-0.8-2.8-1.3-4.3-1.7c-1.5-0.4-3.1-0.6-4.8-0.6c-1.8,0-3.4,0.3-4.8,1c-1.4,0.7-2.7,1.6-3.7,2.9c-1,1.3-1.8,2.8-2.3,4.7
		c-0.5,1.8-0.8,3.9-0.8,6.3c0,4.9,1,8.6,3,11.1c2,2.5,4.9,3.8,8.8,3.8c1.6,0,3.2-0.2,4.7-0.6c1.5-0.4,2.9-0.9,4.3-1.6V52.9z"/>
	<path class="st1" d="M432.1,54.4l-0.1-3.9c-1.6,1.6-3.2,2.7-4.8,3.4c-1.6,0.7-3.4,1-5.2,1c-1.7,0-3.1-0.2-4.3-0.6
		c-1.2-0.4-2.2-1-2.9-1.8c-0.8-0.7-1.3-1.6-1.7-2.6c-0.4-1-0.5-2.1-0.5-3.3c0-2.9,1.1-5.2,3.3-6.9c2.2-1.7,5.4-2.5,9.7-2.5h6.1v-2.6
		c0-1.7-0.6-3.1-1.7-4.1c-1.1-1-2.8-1.6-5.1-1.6c-1.6,0-3.3,0.2-4.9,0.6c-1.6,0.4-3.3,0.9-5,1.6v-4.6c0.6-0.2,1.4-0.5,2.1-0.7
		c0.8-0.2,1.6-0.4,2.5-0.6c0.9-0.2,1.8-0.3,2.7-0.4c0.9-0.1,1.9-0.2,2.9-0.2c1.8,0,3.4,0.2,4.8,0.6c1.4,0.4,2.6,1,3.6,1.8
		c1,0.8,1.7,1.8,2.3,3c0.5,1.2,0.8,2.6,0.8,4.2v20.1H432.1z M431.6,41.1h-6.4c-1.3,0-2.3,0.1-3.3,0.4c-0.9,0.3-1.7,0.6-2.2,1.1
		c-0.6,0.5-1,1-1.3,1.7c-0.3,0.7-0.4,1.4-0.4,2.2c0,0.6,0.1,1.1,0.3,1.6c0.2,0.5,0.5,1,0.8,1.4c0.4,0.4,0.9,0.7,1.5,0.9
		c0.6,0.2,1.4,0.3,2.3,0.3c1.2,0,2.5-0.4,4-1.1c1.5-0.7,3.1-1.8,4.8-3.4V41.1z"/>
	<path class="st1" d="M464,54.4v-21c0-0.9,0-1.7-0.1-2.2c-0.1-0.6-0.2-1-0.3-1.4c-0.1-0.3-0.3-0.6-0.6-0.7c-0.2-0.1-0.5-0.2-0.8-0.2
		c-0.4,0-0.7,0.1-1.1,0.3c-0.3,0.2-0.7,0.6-1.1,1.1c-0.4,0.5-0.8,1.2-1.3,2.1c-0.5,0.9-1,1.9-1.6,3.2v18.8h-4.6V33.9
		c0-1.1,0-1.9-0.1-2.6c-0.1-0.7-0.2-1.2-0.3-1.5c-0.1-0.4-0.3-0.6-0.6-0.8c-0.2-0.1-0.5-0.2-0.8-0.2c-0.3,0-0.7,0.1-1,0.3
		c-0.3,0.2-0.7,0.5-1,1c-0.4,0.5-0.8,1.2-1.3,2.1s-1,2-1.7,3.3v18.8h-4.7V25.2h3.9l0.2,5.6c0.5-1.1,1-2,1.5-2.8
		c0.5-0.8,1-1.4,1.5-1.9c0.5-0.5,1-0.8,1.6-1c0.6-0.2,1.2-0.3,1.9-0.3c1.6,0,2.8,0.5,3.6,1.5c0.8,1,1.2,2.6,1.2,4.8
		c0.5-1,0.9-1.9,1.4-2.7c0.4-0.8,0.9-1.4,1.4-2c0.5-0.5,1.1-0.9,1.7-1.2c0.6-0.3,1.3-0.4,2.2-0.4c3.7,0,5.5,2.8,5.5,8.5v21.3H464z"
		/>
	<path class="st1" d="M498,39.2c0,2.6-0.4,4.9-1.1,6.8c-0.7,1.9-1.7,3.5-3,4.8c-1.3,1.3-2.8,2.2-4.5,2.9s-3.6,1-5.7,1
		c-0.9,0-1.9,0-2.8-0.1c-0.9-0.1-1.9-0.3-2.8-0.5v12.2H473V25.2h4.5l0.3,4.9c1.5-2,3-3.4,4.7-4.2c1.6-0.8,3.4-1.2,5.4-1.2
		c1.7,0,3.1,0.3,4.4,1c1.3,0.7,2.3,1.7,3.2,3c0.9,1.3,1.5,2.8,1.9,4.6C497.8,35,498,37,498,39.2z M492.8,39.5c0-1.5-0.1-2.9-0.3-4.2
		c-0.2-1.3-0.6-2.4-1.1-3.3c-0.5-0.9-1.1-1.6-1.9-2.1c-0.8-0.5-1.7-0.8-2.7-0.8c-0.6,0-1.3,0.1-1.9,0.3c-0.7,0.2-1.3,0.5-2.1,1
		c-0.7,0.5-1.5,1.1-2.2,1.9c-0.8,0.8-1.6,1.8-2.5,2.9v14.2c0.9,0.4,1.9,0.7,2.9,0.9c1,0.2,2,0.3,3,0.3c2.7,0,4.9-0.9,6.4-2.8
		C492,46,492.8,43.2,492.8,39.5z"/>
</g>
<g>
	<path class="st1" d="M177,110.2c-6.4-6-9.7-12.6-9.7-19.8c0-1.7,0.2-3.4,0.5-5.1s0.9-3.4,1.7-5.1c0.8-1.7,1.8-3.4,3-5.1
		c1.3-1.7,2.8-3.4,4.6-5l2.1,2.2c-5.4,5.3-8.1,11.3-8.1,17.8c0,3.2,0.7,6.4,2.1,9.3c1.4,3,3.4,5.8,6.1,8.5L177,110.2z"/>
	<path class="st1" d="M204.2,90.7c0,1.6-0.2,3.1-0.7,4.5c-0.5,1.4-1.1,2.5-2,3.5c-0.9,1-1.9,1.7-3.2,2.3c-1.2,0.5-2.7,0.8-4.2,0.8
		c-1.5,0-2.9-0.2-4.1-0.7c-1.2-0.5-2.2-1.2-3-2.1c-0.8-0.9-1.5-2-1.9-3.4c-0.4-1.3-0.7-2.9-0.7-4.6c0-1.6,0.2-3.1,0.7-4.5
		c0.5-1.3,1.1-2.5,2-3.5c0.9-1,1.9-1.7,3.2-2.3c1.2-0.5,2.7-0.8,4.2-0.8c1.5,0,2.9,0.2,4.1,0.7c1.2,0.5,2.2,1.2,3,2.1
		c0.8,0.9,1.5,2,1.9,3.4C204,87.4,204.2,89,204.2,90.7z M200.5,90.9c0-1.3-0.1-2.4-0.4-3.4c-0.3-1-0.7-1.8-1.2-2.4
		c-0.5-0.6-1.2-1.1-1.9-1.5c-0.8-0.3-1.6-0.5-2.5-0.5c-1.1,0-2,0.2-2.8,0.6c-0.8,0.4-1.4,1-1.9,1.7c-0.5,0.7-0.9,1.5-1.1,2.5
		c-0.2,0.9-0.3,1.9-0.3,3c0,1.3,0.1,2.4,0.4,3.4c0.3,1,0.7,1.8,1.2,2.4s1.2,1.1,1.9,1.5c0.8,0.3,1.6,0.5,2.6,0.5
		c1.1,0,2-0.2,2.8-0.6s1.4-1,1.9-1.7c0.5-0.7,0.9-1.5,1.1-2.5S200.5,91.9,200.5,90.9z"/>
	<path class="st1" d="M207.4,80.4h3.2l0.1,3.4c0.6-0.7,1.2-1.3,1.8-1.8c0.6-0.5,1.1-0.9,1.7-1.2c0.6-0.3,1.1-0.5,1.7-0.6
		c0.6-0.1,1.2-0.2,1.8-0.2c2.2,0,3.8,0.6,4.9,1.9c1.1,1.3,1.7,3.2,1.7,5.8v13.7h-3.6V88c0-1.6-0.3-2.9-0.9-3.7
		c-0.6-0.8-1.5-1.2-2.7-1.2c-0.4,0-0.9,0.1-1.3,0.2c-0.4,0.1-0.9,0.4-1.3,0.7c-0.5,0.3-1,0.8-1.5,1.3c-0.5,0.6-1.1,1.3-1.8,2.1v14
		h-3.6V80.4z"/>
	<path class="st1" d="M236,74.8h-6.2v-3h9.9v26.6h6.3v3h-16.9v-3h6.9V74.8z"/>
	<path class="st1" d="M257.5,83.4h-6.2v-3h9.9v18h6.3v3h-16.9v-3h6.9V83.4z M258.8,71.5c0.4,0,0.8,0.1,1.1,0.2
		c0.3,0.1,0.7,0.4,0.9,0.6c0.3,0.3,0.5,0.6,0.6,0.9c0.1,0.3,0.2,0.7,0.2,1.1c0,0.4-0.1,0.8-0.2,1.1c-0.1,0.3-0.3,0.7-0.6,0.9
		c-0.3,0.3-0.6,0.5-0.9,0.6c-0.3,0.1-0.7,0.2-1.1,0.2s-0.8-0.1-1.1-0.2c-0.3-0.1-0.7-0.4-0.9-0.6c-0.3-0.3-0.5-0.6-0.6-0.9
		c-0.1-0.3-0.2-0.7-0.2-1.1c0-0.4,0.1-0.8,0.2-1.1c0.1-0.3,0.3-0.6,0.6-0.9c0.3-0.3,0.6-0.5,0.9-0.6C258,71.6,258.4,71.5,258.8,71.5
		z"/>
	<path class="st1" d="M271.8,80.4h3.2l0.1,3.4c0.6-0.7,1.2-1.3,1.8-1.8c0.6-0.5,1.1-0.9,1.7-1.2c0.6-0.3,1.1-0.5,1.7-0.6
		c0.6-0.1,1.2-0.2,1.8-0.2c2.2,0,3.8,0.6,4.9,1.9c1.1,1.3,1.7,3.2,1.7,5.8v13.7h-3.6V88c0-1.6-0.3-2.9-0.9-3.7
		c-0.6-0.8-1.5-1.2-2.7-1.2c-0.4,0-0.9,0.1-1.3,0.2c-0.4,0.1-0.9,0.4-1.3,0.7c-0.5,0.3-1,0.8-1.5,1.3c-0.5,0.6-1.1,1.3-1.8,2.1v14
		h-3.6V80.4z"/>
	<path class="st1" d="M311.1,89.8c0,0.5,0,0.9,0,1.3c0,0.3,0,0.7-0.1,1h-14.8c0,2.2,0.6,3.8,1.8,5c1.2,1.2,2.9,1.7,5.2,1.7
		c0.6,0,1.2,0,1.8-0.1s1.2-0.1,1.8-0.2c0.6-0.1,1.1-0.2,1.6-0.3c0.5-0.1,1-0.2,1.5-0.3v3c-1,0.3-2.1,0.5-3.4,0.7s-2.5,0.3-3.9,0.3
		c-1.8,0-3.4-0.2-4.7-0.7c-1.3-0.5-2.4-1.2-3.2-2.1c-0.8-0.9-1.4-2.1-1.8-3.4s-0.6-2.9-0.6-4.6c0-1.5,0.2-2.9,0.6-4.2
		c0.4-1.3,1-2.5,1.9-3.5c0.8-1,1.8-1.8,3-2.4s2.5-0.9,4-0.9c1.5,0,2.8,0.2,3.9,0.7c1.1,0.5,2.1,1.1,2.9,2c0.8,0.8,1.4,1.9,1.8,3.1
		S311.1,88.3,311.1,89.8z M307.3,89.2c0-0.9,0-1.8-0.3-2.6c-0.2-0.8-0.6-1.4-1-2s-1.1-1-1.7-1.3c-0.7-0.3-1.5-0.5-2.4-0.5
		c-0.8,0-1.5,0.2-2.2,0.5c-0.7,0.3-1.2,0.7-1.7,1.3s-0.9,1.2-1.2,2c-0.3,0.8-0.5,1.6-0.5,2.6H307.3z"/>
	<path class="st1" d="M352.6,100.6c-0.9,0.4-1.9,0.6-2.9,0.8c-1,0.2-2,0.3-3.1,0.3c-3.3,0-5.9-0.9-7.7-2.7s-2.7-4.4-2.7-7.9
		c0-1.7,0.3-3.2,0.8-4.5c0.5-1.4,1.2-2.5,2.2-3.5s2.1-1.7,3.4-2.2c1.3-0.5,2.7-0.8,4.3-0.8c1.1,0,2.1,0.1,3.1,0.2
		c0.9,0.2,1.9,0.4,2.7,0.8v3.5c-0.9-0.5-1.8-0.8-2.8-1s-1.9-0.3-2.9-0.3c-0.9,0-1.8,0.2-2.7,0.5c-0.8,0.4-1.6,0.9-2.2,1.5
		c-0.6,0.7-1.1,1.5-1.5,2.5s-0.5,2.1-0.5,3.3c0,2.5,0.6,4.4,1.9,5.7c1.2,1.3,3,1.9,5.1,1.9c1,0,2-0.1,2.9-0.3s1.8-0.6,2.7-1V100.6z"
		/>
	<path class="st1" d="M376.1,90.7c0,1.6-0.2,3.1-0.7,4.5c-0.5,1.4-1.1,2.5-2,3.5c-0.9,1-1.9,1.7-3.2,2.3c-1.2,0.5-2.7,0.8-4.2,0.8
		c-1.5,0-2.9-0.2-4.1-0.7c-1.2-0.5-2.2-1.2-3-2.1c-0.8-0.9-1.5-2-1.9-3.4c-0.4-1.3-0.7-2.9-0.7-4.6c0-1.6,0.2-3.1,0.7-4.5
		c0.5-1.3,1.1-2.5,2-3.5c0.9-1,1.9-1.7,3.2-2.3c1.2-0.5,2.7-0.8,4.2-0.8c1.5,0,2.9,0.2,4.1,0.7c1.2,0.5,2.2,1.2,3,2.1
		c0.8,0.9,1.5,2,1.9,3.4C375.9,87.4,376.1,89,376.1,90.7z M372.4,90.9c0-1.3-0.1-2.4-0.4-3.4c-0.3-1-0.7-1.8-1.2-2.4
		c-0.5-0.6-1.2-1.1-1.9-1.5c-0.8-0.3-1.6-0.5-2.5-0.5c-1.1,0-2,0.2-2.8,0.6c-0.8,0.4-1.4,1-1.9,1.7c-0.5,0.7-0.9,1.5-1.1,2.5
		c-0.2,0.9-0.3,1.9-0.3,3c0,1.3,0.1,2.4,0.4,3.4c0.3,1,0.7,1.8,1.2,2.4c0.5,0.6,1.2,1.1,1.9,1.5c0.8,0.3,1.6,0.5,2.6,0.5
		c1.1,0,2-0.2,2.8-0.6c0.8-0.4,1.4-1,1.9-1.7c0.5-0.7,0.9-1.5,1.1-2.5C372.2,92.9,372.4,91.9,372.4,90.9z"/>
	<path class="st1" d="M396.2,101.4h-3.3l-0.1-3.4c-0.6,0.7-1.2,1.3-1.8,1.8c-0.6,0.5-1.1,0.9-1.7,1.2s-1.1,0.5-1.7,0.6
		c-0.6,0.1-1.2,0.2-1.8,0.2c-2.2,0-3.8-0.6-4.9-1.9c-1.1-1.3-1.7-3.2-1.7-5.8V80.4h3.6v13.4c0,3.2,1.2,4.8,3.6,4.8
		c0.4,0,0.9-0.1,1.3-0.2c0.4-0.1,0.9-0.4,1.3-0.7c0.5-0.3,1-0.8,1.5-1.3c0.5-0.6,1.1-1.3,1.8-2.1v-14h3.6V101.4z"/>
	<path class="st1" d="M401.6,80.4h3.3l0.1,3.9c1.2-1.5,2.5-2.6,3.7-3.2c1.2-0.7,2.4-1,3.7-1c2.2,0,3.8,0.7,5,2.1
		c1.1,1.4,1.6,3.5,1.6,6.3h-3.7c0-1.8-0.2-3.2-0.8-4c-0.6-0.8-1.4-1.2-2.5-1.2c-0.5,0-1,0.1-1.5,0.3c-0.5,0.2-1,0.5-1.5,0.8
		s-1.1,0.9-1.7,1.5c-0.6,0.6-1.2,1.3-1.9,2.2v13.5h-3.7V80.4z"/>
	<path class="st1" d="M438.9,95.7c0,0.7-0.1,1.4-0.4,2s-0.6,1.1-1,1.6c-0.4,0.5-0.9,0.8-1.5,1.2c-0.6,0.3-1.2,0.6-1.8,0.8
		s-1.3,0.4-2,0.5c-0.7,0.1-1.4,0.1-2,0.1c-1.4,0-2.7-0.1-3.9-0.2c-1.2-0.1-2.4-0.3-3.5-0.6v-3.4c1.2,0.3,2.5,0.6,3.7,0.8
		s2.4,0.3,3.6,0.3c1.7,0,3-0.2,3.9-0.7s1.3-1.2,1.3-2c0-0.4-0.1-0.7-0.2-1c-0.1-0.3-0.4-0.6-0.7-0.9c-0.3-0.3-0.9-0.6-1.6-0.8
		s-1.7-0.6-3-1c-0.9-0.3-1.8-0.6-2.6-1c-0.8-0.4-1.5-0.8-2.1-1.3c-0.6-0.5-1-1.1-1.4-1.7S423,86.9,423,86c0-0.6,0.1-1.2,0.4-1.9
		s0.7-1.3,1.4-1.9c0.7-0.6,1.5-1.1,2.7-1.5c1.1-0.4,2.5-0.6,4.2-0.6c0.8,0,1.7,0,2.7,0.1c1,0.1,2.1,0.2,3.1,0.5v3.2
		c-1.1-0.3-2.2-0.5-3.3-0.6s-1.9-0.2-2.7-0.2c-0.9,0-1.7,0.1-2.3,0.2c-0.6,0.1-1.1,0.3-1.5,0.6c-0.4,0.2-0.7,0.5-0.8,0.9
		c-0.2,0.3-0.3,0.7-0.3,1.1s0.1,0.7,0.2,1c0.1,0.3,0.4,0.6,0.8,0.9c0.4,0.3,1,0.6,1.7,0.9s1.6,0.6,2.8,0.9c1.2,0.4,2.3,0.7,3.1,1.1
		c0.9,0.4,1.5,0.8,2.1,1.3c0.5,0.5,0.9,1,1.1,1.7C438.8,94.2,438.9,94.9,438.9,95.7z"/>
	<path class="st1" d="M461.5,89.8c0,0.5,0,0.9,0,1.3c0,0.3,0,0.7-0.1,1h-14.8c0,2.2,0.6,3.8,1.8,5c1.2,1.2,2.9,1.7,5.2,1.7
		c0.6,0,1.2,0,1.8-0.1s1.2-0.1,1.8-0.2c0.6-0.1,1.1-0.2,1.6-0.3c0.5-0.1,1-0.2,1.5-0.3v3c-1,0.3-2.1,0.5-3.4,0.7s-2.5,0.3-3.9,0.3
		c-1.8,0-3.4-0.2-4.7-0.7c-1.3-0.5-2.4-1.2-3.2-2.1c-0.8-0.9-1.4-2.1-1.8-3.4s-0.6-2.9-0.6-4.6c0-1.5,0.2-2.9,0.6-4.2
		c0.4-1.3,1-2.5,1.9-3.5c0.8-1,1.8-1.8,3-2.4s2.5-0.9,4-0.9c1.5,0,2.8,0.2,3.9,0.7c1.1,0.5,2.1,1.1,2.9,2c0.8,0.8,1.4,1.9,1.8,3.1
		S461.5,88.3,461.5,89.8z M457.7,89.2c0-0.9,0-1.8-0.3-2.6c-0.2-0.8-0.6-1.4-1-2c-0.5-0.6-1.1-1-1.7-1.3c-0.7-0.3-1.5-0.5-2.4-0.5
		c-0.8,0-1.5,0.2-2.2,0.5c-0.7,0.3-1.2,0.7-1.7,1.3s-0.9,1.2-1.2,2c-0.3,0.8-0.5,1.6-0.5,2.6H457.7z"/>
	<path class="st1" d="M469.5,70.2c6.4,6,9.7,12.6,9.7,19.9c0,1.5-0.2,3.1-0.5,4.7c-0.3,1.6-0.8,3.3-1.6,5c-0.7,1.7-1.7,3.4-3,5.2
		s-2.8,3.5-4.7,5.3l-2.1-2.2c2.7-2.7,4.8-5.5,6.1-8.4s2-6,2-9.2c0-6.6-2.7-12.6-8.1-17.9L469.5,70.2z"/>
</g>
</svg>
