<?xml version="1.0" encoding="utf-8"?>
<!-- Generator: Adobe Illustrator 23.0.1, SVG Export Plug-In . SVG Version: 6.00 Build 0)  -->
<svg version="1.1" id="Layer_1" xmlns="http://www.w3.org/2000/svg" xmlns:xlink="http://www.w3.org/1999/xlink" x="0px" y="0px"
	 viewBox="0 0 22.6 15" style="enable-background:new 0 0 22.6 15;" xml:space="preserve">
<style type="text/css">
	.st0{fill:none;stroke:#FFFFFF;stroke-width:1.6711;stroke-linecap:round;stroke-miterlimit:10;}
	.st1{fill:none;stroke:#C1C1C1;stroke-width:1.206;stroke-linecap:round;stroke-miterlimit:10;}
	.st2{fill:none;stroke:#C1C1C1;stroke-width:0.758;stroke-linecap:round;stroke-miterlimit:10;}
</style>
<g>
	<line class="st0" x1="0.8" y1="0.8" x2="21.7" y2="0.8"/>
	<line class="st0" x1="0.8" y1="7.5" x2="21.7" y2="7.5"/>
	<line class="st0" x1="0.8" y1="14.2" x2="21.7" y2="14.2"/>
</g>
<path class="st1" d="M102.1,53.8H51.4c-1.5,0-2.6-1.2-2.6-2.6V8.5c0-1.5,1.2-2.6,2.6-2.6h50.7c1.5,0,2.6,1.2,2.6,2.6v42.7
	C104.6,52.6,103.5,53.8,102.1,53.8z"/>
<path class="st2" d="M-27.3,50.8h-54.1c-0.6,0-1-0.5-1-1V3.5c0-0.6,0.5-1,1-1h54.1c0.6,0,1,0.5,1,1v46.3
	C-26.3,50.3-26.7,50.8-27.3,50.8z"/>
</svg>
