<?xml version="1.0" encoding="utf-8"?>
<!-- Generator: Adobe Illustrator 23.0.1, SVG Export Plug-In . SVG Version: 6.00 Build 0)  -->
<svg version="1.1" xmlns="http://www.w3.org/2000/svg" xmlns:xlink="http://www.w3.org/1999/xlink" x="0px" y="0px"
	 viewBox="0 0 457.6 136.5" style="enable-background:new 0 0 457.6 136.5;" xml:space="preserve">
<style type="text/css">
	.st0{fill:#8299A3;}
</style>
<g id="Layer_1">
	<path class="st0" d="M308.3,64.2c-0.3,2.3-0.6,4.9-0.9,7.1c0.9,0.9,1.8,1.5,2.4,2.3c0.2,0.3-0.2,1.4-0.6,1.5
		c-0.7,0.3-1.7,0.2-2.5,0.3c-0.2-0.2-0.3-0.3-0.5-0.5c-0.2,1.7-0.5,3.5-0.6,5.2c0,0.3,0.5,0.8,0.8,0.9c1.3,0.7,2,1.7,2.3,3.1
		c0.2,1.3,0.7,2.5,1.1,3.9c0.3,0.1,0.8,0.1,1.3,0.2c0.5,1.5,0.5,1.5,1.5,1.6c0.1-0.5,0.2-1,0.3-1.6c0.5,0,1-0.1,1.3-0.1
		c0.4,0.7,0.8,1.2,1.1,1.7c0.3-0.5,0.7-0.9,1.2-1.7c0.1,0,0.6,0,0.9,0c0.5,0.7,0.8,1.2,1.2,1.7c0.3-0.5,0.7-0.9,1.2-1.6
		c0.2,0,0.6,0,1,0c0.4,0.6,0.8,1.1,1.2,1.6c0.3-0.5,0.7-1,1.1-1.7c0.2,0,0.7-0.1,1.1-0.1c0.4-1.2,0.8-2.3,1-3.4
		c0.2-1.8,1-3.1,2.8-3.8c0.3-0.1,0.5-0.8,0.5-1.3c0.1-1.3,0-2.7,0-4c0.3,0,0.5,0,0.8,0c0,1.2,0,2.4,0,3.5c0,1,0,1.7,1.2,2.2
		c0.7,0.3,1.4,1.2,1.6,1.9c0.5,2,0.7,4,1.1,6c0.1,0.5,0.1,1.2,0.4,1.3c0.3,0.2,1,0,1.4-0.3c5.9-4,11.1-8.7,14.8-14.9
		c0.4-0.6,0.6-1.4,0.6-2.2c0.1-2,0-3.9,0.1-5.9c0.1-1.2,0.1-2.3,0.7-3.5c0.9-1.8,0.7-4.1,0.8-6.2c0-0.3-0.4-0.6-0.7-1
		c0.3-0.3,0.7-0.6,1-1c0.4,0.3,0.7,0.6,1,0.8c-0.7,1.1-0.8,3.6-0.1,4.3c0.6,0.7,1.2,0.5,1.5-0.4c1.1-3.2,2.1-6.4,3.2-9.7
		c-0.6-0.2-1-0.4-1.5-0.5c0.6-0.6,1.2-1.2,1.7-1.7c0.4,0.4,1,1,1.6,1.7c-0.4,0.1-0.8,0.3-1.4,0.5c0.7,2.2,1.3,4.3,2,6.5
		c0.3,1.1,0.7,2.2,1.1,3.3c0.3,0.9,1,1,1.5,0.4c0.7-0.7,0.6-3.4-0.2-4.4c0.3-0.2,0.7-0.4,1.1-0.7c0.3,0.2,0.6,0.4,0.9,0.7
		c0,0.1,0,0.2,0,0.2c-1.5,1.6-0.1,3.2,0.1,4.8c0.3,2.6,0.8,5.2,1.2,7.9c3.6,0,7.4,0,11.2,0c0.1-0.8,0.1-1.6,0.2-2.3
		c0.1,0,0.1,0,0.2,0c0.1,0.7,0.1,1.5,0.2,2.3c4.1,0,8.2,0,12.4,0c0.1-0.8,0.2-1.6,0.2-2.4c0.1,0,0.2,0,0.2,0c0,0.8,0.1,1.5,0.1,2.4
		c3.8,0,7.5,0,11.5,0c0-0.6-0.1-1.2,0-1.7c0.2-1.3-0.1-2.4,0.7-3.8c0.9-1.7,0.7-4,0.9-6.1c0-0.4-0.4-0.7-0.7-1.2
		c0.3-0.3,0.6-0.6,1-1c0.3,0.3,0.6,0.6,0.5,0.6c0,1.4-0.1,2.5,0,3.5c0.1,0.5,0.6,1,0.9,1.5c0.4-0.5,0.9-0.9,1.1-1.4
		c1-2.9,1.9-5.9,2.9-8.9c-0.6-0.2-1-0.4-1.4-0.6c0.6-0.7,1.2-1.3,1.6-1.7c0.4,0.5,1,1.1,1.5,1.8c-0.3,0.1-0.7,0.3-1.3,0.5
		c0.2,0.7,0.3,1.4,0.5,2c0.8,2.5,1.6,5,2.5,7.5c0.1,0.4,0.7,0.6,1,0.9c0.2-0.3,0.7-0.7,0.7-1c0.1-1.2,1.1-2.4-0.3-3.4
		c0.4-0.4,0.7-0.7,0.9-1.1c0.4,0.3,0.7,0.6,0.7,0.6c-0.1,1.2-0.2,2.1-0.2,3c0.1,1.4,0,2.9,0.6,4.1c1.7,3.5,0.4,7.2,0.9,10.7
		c0.1,0.6,0.5,1.3,0.8,1.8c4.5,7.2,10.7,12.5,18,16.7c2.4,1.4,5,2.7,7.8,4.2c0-1.8,0-3.3,0-4.8c4.6,0,9.1,0,13.7,0
		c0,14.8,0,29.7,0,44.7c-152.5,0-305,0-457.6,0c0-2.6,0-5.3,0-8.1c1.6,0,3.2,0,4.9,0c0-7.1,0-14,0-21.2c4.8,0,9.4,0,14.4,0
		c-0.2-1.2-0.5-2.1-0.6-3c-0.1-0.5-0.2-0.9-0.2-1.4c0.2-3.1,0.3-6.3,0.5-9.4c0-0.4,0.3-0.8,0.5-1c1.1-1.1,1.4-2.4,1.6-3.9
		c0.5-3.8,1.2-7.5,2.2-11.3c0.4,1.9,0.6,3.8,1.1,5.7c0.6,2.2,1.1,4.4,0.9,6.6c0,0.6,0.3,1.3,0.6,1.9c0.6,1.1,1.2,2.2,1.6,2.9
		c0.2-1.3,0.4-3.2,0.7-5.1c0.1-0.5,0.4-0.9,0.5-1.4c0.5-1.3,1.4-2.5,1.4-3.8c0-3.2,1.4-6,1.6-9.1c0.1-0.7,0.2-1.4,0.7-2.2
		c0.4,1.8,0.6,3.7,1.1,5.5c0.7,2.3,1.1,4.5,1,6.9c0,0.5,0.1,1.1,0.4,1.5c3,3.8,2.4,8.3,1.9,12.5c-0.8,6.7,0.1,13.4-0.6,20.2
		c3,0,5.7,0,8.6,0c0-2.1,0-4.2,0-6.5c1.8,0,3.3,0,5.1,0c0-0.7,0.1-1.2,0.1-1.7c0-15.9,0-31.9,0-47.8c0-0.8-0.5-1.5-0.7-2.3
		c-0.2-0.7-0.6-1.3-0.6-2c0-5.3,0-10.6,0.1-15.9c0-0.3-0.1-0.7,0.1-0.9c1.7-3.9,1.2-8.2,2.2-12.5c0.2,1.4,0.4,2.6,0.6,4
		c1.9-1.8,2.8-3.8,2.9-6.2c0.1-4,0.2-8.1,0.3-12.1c0-0.4,0.1-0.8,0.4-1.3c0.1,0.8,0.3,1.7,0.4,2.5c0.1,0,0.2,0,0.3,0
		c1-5.7,2.1-11.4,3.1-17.1c0.1,0,0.2,0,0.3,0c1.1,5.7,2.1,11.4,3.2,17.1c0.1,0,0.2,0,0.3,0c0.2-1.2,0.3-2.5,0.5-3.7
		c0.1,0,0.3,0,0.4,0c0.1,4.8,0.2,9.6,0.2,14.4c0,2.3,1.2,4.9,2.9,6.1c0.1-0.7,0.2-1.3,0.3-2c0.1-0.6,0.1-1.2,0.4-1.9
		c0.3,3,0.6,6,0.9,9.1c0.1,0.8,0.4,1.6,0.6,2.4c0.2,0.7,0.5,1.4,0.5,2.1c0.1,5.2,0.1,10.5,0.1,15.7c0,0.5,0,1.3-0.3,1.6
		c-1.2,1.2-1.1,2.6-1.1,4c0,15.4,0,30.7,0,46.1c0,0.6,0,1.2,0,1.9c3.6,0,7.1,0,10.7,0c0.1-0.6,0.1-1.2,0.2-1.8
		c0.1,0,0.3,0.1,0.4,0.1c0.3-0.6,0.8-1.2,0.8-1.8c0.1-2.8,0.1-5.6,0-8.4c0-0.7-0.4-1.4-0.6-2.1c-0.1-0.4-0.1-0.9,0-1.2
		c0.2-0.7,0.7-1.3,0.7-2c0.1-2.7,0.1-5.5,0-8.3c0-0.7-0.4-1.3-0.5-2c-0.1-0.4,0-1.1,0.3-1.3c0.5-0.5,1.2-0.8,2-1.2
		c-0.4-1.6,0.7-3.5-0.6-5.1c-0.1-0.1,0.1-0.6,0.2-0.7c1.8-0.3,1.9-2.1,2-3.1c0.3-2.2,1.2-4.6-1-6.3c2.9-3.5,3.8-7.8,5.5-11.9
		c0.3,1.2,0.4,2.4,0.9,3.6c0.7,1.9,1.6,3.8,2.5,5.7c0.4,0.9,1,1.7,1.7,2.7c-1.8,1.1-1.1,3.2-1,5.1c0.1,1.8,0.2,3.8,2.6,4.5
		c-1.4,1.8-1.3,3.9-0.6,5.4c0.5,1.1,2.3,2.5,4.4,1.6c0-0.6,0.1-1.4,0.1-2.3c1.4,0,2.8,0,4,0c0.9-2.5,1.5-4.9,2.5-7.1
		c0.4-1,1.3-2,2.2-2.8c1.7-1.4,2.6-3,2.5-5.2c0-2,0.4-4,0.8-6c0-0.2,0.7-0.4,1.5-0.8c0.2,3.1,0.3,5.8,0.7,8.5c0.2,1.1,0.9,2.3,1.8,3
		c2.1,1.7,3.4,3.7,3.6,6.4c0,0.3,0,0.7,0.1,0.7c1.5,0.6,1,2,1.3,3.3c1.4,0,2.8,0,4.3,0c0.1,0.9,0.1,1.6,0.2,2.3
		c2,1.1,3.8-0.4,4.3-1.4c0.8-1.5,0.8-3.7-0.5-5.5c2.3-0.7,2.5-2.7,2.5-4.5c0-1.8,0.9-3.9-1.1-5.1c3-3.5,3.6-8,5.4-12.1
		c1,2.9,1.7,5.7,2.8,8.4c0.5,1.3,1.6,2.4,2.4,3.6c-1.9,2.1-1.3,4.6-0.6,7.1c0.2,1,0.3,2.1,1.6,2.3c0.1,0,0.2,0.6,0.1,0.9
		c-0.2,1.5-0.4,3.1-0.5,4.6c0,0.2,0.5,0.5,0.8,0.7c0.6,0.5,1.2,0.9,1.4,1.1c-0.3,1.4-0.6,2.4-0.6,3.3c-0.1,2.5,0,5.1,0,7.6
		c0,0.9-0.2,1.8,0.8,2.4c0.2,0.1,0.1,0.7,0,1.1c-0.2,0.8-0.6,1.5-0.6,2.3c-0.1,2.8,0,5.5,0,8.3c0,0.9-0.2,1.9,1.3,1.6
		c0,0.7,0.1,1.2,0.1,1.9c4.1,0,8.1,0,12.4,0c-0.2-1.8-0.3-3.6-0.5-5.4c-1.3-12.9-1.7-25.9-0.9-38.9c0.8-11.9,2.2-23.7,5.3-35.2
		c1.6-5.9,3.2-11.7,6.4-17c0.3-0.4,0.6-0.9,0.9-1.2c2.1-2.3,4.5-2.4,6.1,0.2c1.9,3,3.5,6.2,4.7,9.6c3.8,10.5,5.7,21.3,7,32.3
		c1.6,14,1.7,28.1,0.8,42.1c-0.2,3.7-0.7,7.4-1,11.2c-0.1,0.7-0.1,1.4-0.2,2.3c2.7,0,5.2,0,8.1,0c0-0.7,0-1.3,0-2
		c0-22.9,0-45.7,0-68.6c0-4.1,1.5-7.2,5.2-9.2c2.7-1.5,3.8-4.6,2.8-7.9c-0.1-0.5-0.3-1-0.6-1.9c2,1.6,3.2,2.9,3.2,5.4
		c-0.2,5.2-0.1,10.5,0,15.7c0,0.6,0.6,1.2,1,1.6c0.3,0.3,0.8,0.5,1.2,0.7c2.1,1,3.1,2.6,3.1,5.1c0.4,14.8,0.8,29.7,1.3,44.5
		c0,0.4,0.1,0.7,0.1,1.1c5.8,0,11.4,0,17.2,0c0-1.9,0-3.7,0-5.7c1.9,0,3.6,0,5.7,0c-1.8-2.4-3.4-4.5-4.7-6.3
		c-1.2,0.1-2.2,0.4-3.1,0.3c-0.4-0.1-0.9-1.2-0.8-1.6c0.3-0.8,1-1.4,1.7-2.3c-0.9-2.1-1.9-4.5-2.8-6.7c-1-0.1-2,0-2.8-0.4
		c-0.4-0.2-0.8-1.5-0.5-1.8c0.5-0.7,1.4-1.1,2.3-1.7c-0.3-2.3-0.6-5-0.9-7.3c-1-0.3-2-0.5-2.6-1c-0.3-0.3-0.4-1.5-0.2-1.8
		c0.7-0.6,1.7-0.9,2.8-1.4c0.3-2.1,0.6-4.8,0.9-7c-0.9-0.7-1.8-1.2-2.3-1.9c-0.2-0.3,0.1-1.6,0.5-1.7c0.8-0.4,1.7-0.3,2.9-0.4
		c0.9-2,1.9-4.5,2.8-6.5c-0.7-1.1-1.3-1.9-1.7-2.9c-0.1-0.3,0.6-1.3,1-1.3c0.8-0.1,1.7,0.3,2.7,0.5c1.4-1.8,3-4,4.4-5.8
		c-0.4-1-1-1.8-1.1-2.7c0-0.5,0.9-1.4,1.3-1.4c0.8,0,1.7,0.6,2.7,1.1c1.8-1.4,3.9-3,5.8-4.5c-0.2-0.9-0.5-1.7-0.6-2.6
		c0-0.3,0.5-0.8,0.9-1c1.2-0.7,2.1,0,2.8,1.7c2.5-1,5-2,7.1-2.9c0.1-1,0-2,0.3-2.8c0.2-0.4,1.4-0.8,1.8-0.5c0.7,0.4,1.1,1.3,1.8,2.2
		c2.2-0.3,4.8-0.6,7.3-0.9c0.3-0.9,0.5-1.9,0.9-2.7c0.1-0.3,0.8-0.4,1.3-0.4c1.2,0.1,1.7,1.2,1.4,3c2.6,0.3,5.3,0.7,7.5,1
		c0.7-0.9,1.2-1.8,1.9-2.2c0.4-0.2,1.6,0,1.7,0.4c0.4,0.8,0.3,1.8,0.5,2.9c2.1,0.9,4.5,1.9,6.8,2.8c0.6-0.6,1.1-1.3,1.7-1.8
		c0.3-0.2,1,0,1.5,0.2c1.1,0.6,1.1,1.8,0,3.3c2.1,1.6,4.2,3.2,6,4.6c1.1-0.4,2-0.9,2.9-1c0.4,0,1.2,0.9,1.2,1.4
		c-0.1,0.8-0.7,1.6-1.1,2.6c1.4,1.8,3,3.9,4.4,5.7c1.1-0.2,2.1-0.5,3-0.3c0.4,0.1,1,1.2,0.9,1.6c-0.3,0.8-1,1.5-1.7,2.4
		c0.8,2,1.8,4.4,2.8,6.7c0.9,0,1.8-0.1,2.6,0c0.3,0.1,0.7,0.6,0.8,1c0.4,1.3-0.5,2.1-2.4,2.4c0.3,2.6,0.7,5.2,0.9,7.4
		c1.1,0.6,2.1,0.8,2.8,1.5c0.3,0.2,0.2,1.5-0.2,1.8C310.3,63.7,309.3,63.8,308.3,64.2z M401.9,76.1c-12.1,0-24.1,0-36.2,0
		c-0.4,1.2-1,2.2-1,3.3c-0.1,7,0,13.9,0,20.9c0,0.5,0.1,0.9,0.1,1.3c0.7,0.1,1.2,0.2,1.7,0.2c0.1,0.7,0.1,1.2,0.2,1.8
		c11.5,0,22.9,0,34.4,0c0.1-0.7,0.1-1.3,0.2-1.9c0.6-0.1,1.1-0.1,1.6-0.1c0.1-0.2,0.1-0.4,0.1-0.5c0-4.2,0.2-8.4,0-12.6
		C402.8,84.4,403.9,80.1,401.9,76.1z M368.7,119.3c10.1,0,20.1,0,30.3,0c0-2.7,0-5.4,0-8.1c0-2.7,0-2.8-2.7-3.2
		c-8.8-1.3-17.7-1.2-26.5,0.2c-0.4,0.1-1.1,0.7-1.1,1.1C368.6,112.6,368.7,115.9,368.7,119.3z M416.5,78.6c0,7.9,0,15.4,0,23
		c0.6,0.1,1.1,0.1,1.7,0.1c0.1,0.7,0.1,1.3,0.2,1.9c4.6,0,9.1,0,13.8,0c0-1.9,0-3.6,0-5.4c1,0,1.8-0.1,3.1-0.2
		C427.3,93,421.2,86.7,416.5,78.6z M351.2,101.5c0-7.6,0-15,0-22.7c-0.3,0.4-0.4,0.5-0.5,0.7c-4.3,7.1-9.7,13-16.7,17.5
		c-0.3,0.2-0.7,0.5-0.7,0.8c-0.1,1.9,0,3.9,0,5.7c4.3,0,8.3,0,12.4,0c0.1-0.7,0.1-1.4,0.2-2.3C347.6,101.3,349.3,101.4,351.2,101.5z
		 M262.9,105.5c-2.3-0.3-4.9-0.7-7.1-0.9c-0.8,1-1.4,1.7-2.1,2.5c-0.1,0.2-0.4,0.3-0.4,0.4c-0.5,1.8-1,3.6-1.5,5.5
		c8.9,0,17.5,0,26.3,0c-0.5-1.8-0.9-3.4-1.4-5.1c-0.1-0.3-0.3-0.7-0.5-0.7c-1.3-0.4-1.7-1.4-1.6-2.6c-2.8,0.4-5.4,0.7-7.6,1
		c-0.4,1.1-0.6,2-1.2,2.6c-0.4,0.3-1.6,0.4-1.9,0C263.4,107.6,263.3,106.6,262.9,105.5z M268.3,62.5c0,0.1,0,0.2-0.1,0.2
		c10.8,2.9,21.6,5.7,32.7,8.7c0.4-3,0.8-5.9,1.2-8.9C290.7,62.5,279.5,62.5,268.3,62.5z M228.9,71.5c11.1-3,21.9-5.8,32.6-8.7
		c0-0.1-0.1-0.2-0.1-0.2c-11.1,0-22.2,0-33.7,0C228.1,65.5,228.5,68.4,228.9,71.5z M290.6,89c-7.8-7.9-15.2-15.5-22.7-23.2
		c-0.1,0.1-0.2,0.1-0.4,0.2c5.4,9.3,10.7,18.6,16.3,28.2C286.3,92.3,288.6,90.6,290.6,89z M262.1,60.2c-7.9-7.9-15.8-15.8-23.9-23.9
		c-1.7,2.3-3.5,4.6-5.4,7.1C242.8,49.1,252.5,54.6,262.1,60.2z M229,72.1c1.2,2.9,2.3,5.6,3.5,8.5c10-5.7,19.6-11.3,29.3-16.9
		c0-0.1-0.1-0.2-0.1-0.3C251,66.2,240.3,69.1,229,72.1z M268.3,60.5c0,0.1,0.1,0.2,0.1,0.4c10.7-2.8,21.4-5.7,32.4-8.6
		c-1.2-2.9-2.4-5.6-3.5-8.4C287.4,49.5,277.9,55,268.3,60.5z M261.5,60.9c0.1-0.1,0.1-0.2,0.2-0.3c-9.6-5.5-19.3-11.1-29.1-16.7
		c-1.2,2.9-2.3,5.6-3.5,8.4C240.1,55.2,250.8,58.1,261.5,60.9z M300.8,72.1c-11.2-3-21.9-5.8-32.7-8.7c0,0.1-0.1,0.2-0.1,0.3
		c9.7,5.6,19.4,11.2,29.3,16.9C298.5,77.6,299.6,75,300.8,72.1z M264.3,58.6c0.1,0,0.2,0,0.3-0.1c0-11,0-22.1,0-33.5
		c-3,0.4-5.9,0.8-9,1.2C258.5,37.2,261.4,47.9,264.3,58.6z M291.6,36.2c-8.1,8.1-15.9,16-23.9,24c9.7-5.6,19.4-11.2,29.3-16.9
		C295.1,40.8,293.3,38.5,291.6,36.2z M246.6,29.8c5.8,10,11.3,19.6,16.9,29.2c0.1,0,0.2-0.1,0.3-0.1c-2.9-10.7-5.8-21.5-8.8-32.5
		C252.1,27.5,249.5,28.6,246.6,29.8z M266.1,58.8c0.1,0,0.2,0.1,0.3,0.1c5.6-9.6,11.1-19.3,16.9-29.2c-2.9-1.2-5.6-2.3-8.4-3.4
		C271.9,37.4,269,48.1,266.1,58.8z M265.4,58.5c0.1,0,0.2,0,0.3,0c2.9-10.7,5.7-21.4,8.6-32.4c-3.1-0.4-5.9-0.8-8.9-1.2
		C265.4,36.4,265.4,47.5,265.4,58.5z M262.4,63.9c-10,5.8-19.6,11.4-29.5,17.1c1.9,2.5,3.7,4.8,5.5,7.1
		C246.4,80,254.2,72.1,262.4,63.9z M227.7,61.7c11.5,0,22.6,0,33.7,0c0-0.1,0-0.2,0-0.2c-10.7-2.9-21.5-5.8-32.5-8.7
		C228.5,55.9,228.1,58.7,227.7,61.7z M301,52.8c-11.1,3-21.8,5.9-32.5,8.7c0,0.1,0,0.2,0.1,0.2c11.1,0,22.2,0,33.6,0
		C301.8,58.8,301.4,55.9,301,52.8z M283.8,30.1c-5.7,9.8-11.2,19.4-16.8,29c7.9-7.9,15.7-15.7,23.7-23.7
		C288.5,33.7,286.3,32,283.8,30.1z M268.1,64.3c7.7,7.8,15.6,15.6,23.6,23.7c1.7-2.3,3.5-4.6,5.3-7
		C287.1,75.3,277.5,69.7,268.1,64.3z M262.7,59.1c0,0,0.1,0,0.1-0.1c-5.5-9.6-11.1-19.2-16.8-29c-2.5,1.9-4.8,3.7-6.9,5.4
		C247.1,43.5,254.9,51.3,262.7,59.1z M262.3,66.1c-0.1-0.1-0.3-0.2-0.4-0.3c-7.5,7.6-15.1,15.3-22.7,23c1.7,1.4,3.1,3.6,5.8,3.1
		c0.3,0.8,0.5,1.4,0.8,2c0.2,0,0.3,0,0.5-0.1C251.6,84.6,257,75.4,262.3,66.1z M274.2,98.1c-2.9-10.9-5.7-21.5-8.6-32.1
		c-0.1,0-0.1,0-0.2,0.1c0,11,0,22,0,33.2C268.4,98.9,271.2,98.5,274.2,98.1z M264.6,66.1c-0.1,0-0.2,0-0.3,0
		c-2.8,10.6-5.6,21.2-8.6,32.1c3,0.4,5.9,0.8,8.8,1.1C264.6,88,264.6,77.1,264.6,66.1z M297.1,91.3c0.5,1,1.1,1.8,1.2,2.7
		c0.1,0.4-0.8,1.4-1.2,1.3c-0.9-0.1-1.8-0.6-2.9-1c-1.8,1.4-3.9,3-5.6,4.3c0.1,1.3,0.3,2.2,0.2,3c-0.1,1-0.4,1.9-0.7,3.1
		c0.9,0,1.3-0.1,1.8-0.1c0.1-0.6,0.2-1,0.4-1.5c0.6,0,1,0.1,1.2,0.1c0.4,0.6,0.7,1,1,1.5c0.3-0.3,0.6-0.8,0.9-1
		c0.4-0.3,1-0.4,1.6-0.7c0.1,0.7,0.2,1.2,0.3,1.5c1.5,0.6,1.3-0.7,1.6-1.4c0.5,0,1,0.1,1.4,0.1c0.1,0.5,0.2,1,0.3,1.3
		c0.8,0,1.4,0,2.2,0c0-3.4,0-6.6,0-9.9c0-0.3-0.5-0.7-0.8-1c-0.9-0.8-1.2-1.9-0.3-2.5c1.8-1.2,0.9-2.7,1.1-4.5
		C299.3,88.7,298,90.1,297.1,91.3z M283.3,94.4c-4.8-8.2-9.4-16.1-14-24.1c-0.1,0-0.2,0.1-0.3,0.1c2.4,8.9,4.8,17.9,7.2,27.1
		C278.6,96.5,280.8,95.5,283.3,94.4z M253.6,97.5c2.5-9.2,4.9-18.2,7.2-27.1c-0.1,0-0.2-0.1-0.3-0.1c-4.6,8-9.2,16-14,24.2
		C249,95.5,251.2,96.5,253.6,97.5z M59.4,42.8c-3.2,0-5.9,2.5-5.9,5.8c0,3.2,2.7,6,5.9,6c3.2,0,5.8-2.7,5.8-5.9
		C65.2,45.4,62.6,42.8,59.4,42.8z M443.7,97.9c-10.3-5-19.8-11-26.3-20.8c0.1,0.7,0.4,1.3,0.7,1.8c4.2,7,9.8,12.6,16.5,17.3
		C437.6,98.3,440.5,98.2,443.7,97.9z M245.4,101c0,4.1,0,8,0,12.1c1.2,0,2.2,0.1,3.3,0c0.3,0,0.8-0.5,0.9-0.8
		c0.8-2.9,1.6-5.8,2.4-8.7C249.8,102.7,247.7,101.9,245.4,101z M420.5,113c4,0,7.8,0,11.6,0c0-1.7,0-3.2,0-4.7c-3.9,0-7.8,0-11.6,0
		C420.5,109.9,420.5,111.4,420.5,113z M402,73.6c-0.5,0-0.8-0.1-1.1-0.1c-11.3,0-22.6,0-33.9,0c-0.3,0-0.6-0.1-0.8,0
		c-0.3,0.1-0.6,0.4-0.6,0.7c0,0.3,0.2,0.6,0.5,0.8c0.2,0.1,0.6,0.1,0.9,0.1c11.3,0,22.5,0,33.8,0c0.4,0,0.8-0.1,1.2-0.1
		C402,74.5,402,74.1,402,73.6z M277.9,103.6c0.7,2.6,1.3,5.1,2,7.5c0.6,2.3,0.8,2.4,3.4,1.7c0-2.2,0-4.4,0-6.6c0-0.4,0-0.8,0.1-1.2
		c0.3-1.2,0.6-2.4,0.9-3.6c-0.2-0.1-0.3-0.1-0.5-0.2C281.9,102,280,102.8,277.9,103.6z M333,95.7c0.2,0.1,0.3,0.2,0.5,0.3
		c7.2-4.8,12.9-10.9,17.2-18.9c-0.5,0.2-0.6,0.2-0.7,0.2c-0.2,0.2-0.3,0.4-0.5,0.6c-3.1,4.4-6.9,8.1-11.1,11.4c-1.5,1.2-3.6,1.8-4,4
		c0,0.2-0.3,0.3-0.4,0.4C333.6,94.4,333.3,95,333,95.7z M368.8,106.1c0.4,0,0.7,0.1,1,0.1c9.2,0,18.5,0,27.7,0c0.2,0,0.5,0.1,0.6,0
		c0.3-0.2,0.5-0.5,0.8-0.7c-0.3-0.2-0.5-0.6-0.8-0.7c-0.9-0.1-1.9,0-2.8,0c-8.4,0-16.8,0-25.2,0
		C369.3,104.7,368.3,104.5,368.8,106.1z M90.5,109.7c0-1.9,0.1-3.6,0-5.4c-0.1-1.3-1-2.1-2.3-2.1c-1.3,0-2.2,0.8-2.3,2.1
		c-0.2,1.8,0,3.6,0,5.4C87.5,109.7,88.9,109.7,90.5,109.7z M137.1,109.7c0-1.9,0.1-3.6,0-5.4c-0.1-1.3-0.9-2.1-2.2-2.2
		c-1.1,0-2.2,0.6-2.3,1.7c-0.2,1.9,0,3.9,0,5.8C134.1,109.7,135.5,109.7,137.1,109.7z M134.8,83.1c1.2,0,2.1-1,2.1-2.2
		c0-1.3-0.9-2.3-2.2-2.3c-1.2,0-2.1,1-2.2,2.2C132.5,82,133.5,83.1,134.8,83.1z M90.4,80.9c0-1.3-1-2.3-2.2-2.3
		c-1.2,0-2.1,1-2.2,2.2c0,1.3,1,2.4,2.2,2.3C89.4,83.1,90.4,82.1,90.4,80.9z M420.1,106.5c1.6,1,11.3,0.9,12,0
		C428.2,106.5,424.3,106.5,420.1,106.5z M269.9,20.3c-1.5-0.1-2.8-0.2-4.4-0.2c0.8,1.6,1.3,2.8,2,4.2
		C268.3,22.8,269,21.6,269.9,20.3z M229.5,39.3c-0.7,1.2-1.3,2.3-2.1,3.6c1.6,0,2.8,0,4.2,0C230.9,41.6,230.3,40.5,229.5,39.3z
		 M294.7,92c-1.4-0.5-2.6-0.9-4.1-1.5c0.4,1.6,0.7,2.8,1.1,4.3C292.8,93.8,293.6,93,294.7,92z M233,83.1c-1.7,0.2-2.9,0.3-4.4,0.5
		c0.8,1.3,1.5,2.3,2.3,3.5C231.6,85.8,232.2,84.6,233,83.1z M266.8,104.2c-0.7-1.3-1.3-2.4-2-3.8c-0.7,1.4-1.3,2.5-2.1,3.8
		C264.2,104.2,265.4,104.2,266.8,104.2z M294,87.2c0.6,1.5,1,2.7,1.6,4.1c1-1.1,1.7-2.1,2.7-3.2C296.7,87.8,295.5,87.5,294,87.2z
		 M284.7,24.9c-1.3-0.6-2.4-1.2-3.6-1.7c0,1.4,0,2.7,0,4.3C282.4,26.5,283.5,25.8,284.7,24.9z M278.6,97.9c-0.2,1.6-0.3,2.8-0.5,4.4
		c1.4-0.5,2.5-1,3.9-1.5C280.8,99.8,279.9,98.9,278.6,97.9z M241,32.3c-0.3-1.5-0.6-2.8-0.9-4.3c-1.2,1-2.1,1.7-3.2,2.6
		C238.4,31.2,239.6,31.7,241,32.3z M292.6,35.7c1.5-0.4,2.8-0.7,4.3-1.1c-1-1.1-1.9-2-2.9-3C293.5,33,293.1,34.2,292.6,35.7z
		 M225.8,78c1-1.1,1.9-2,3-3.2c-1.6-0.2-2.9-0.4-4.4-0.7C224.9,75.5,225.3,76.6,225.8,78z M303.5,79.4c-1.6,0-2.8,0-4.3,0
		c0.8,1.2,1.5,2.3,2.4,3.6C302.3,81.7,302.9,80.6,303.5,79.4z M226.2,78.9c0.7,1.4,1.2,2.5,1.8,3.8c0.9-1.2,1.6-2.3,2.5-3.6
		C229,79.1,227.8,79,226.2,78.9z M260.3,20.2c0.9,1.4,1.6,2.5,2.3,3.7c0.6-1.4,1.1-2.6,1.8-4C262.9,20.1,261.7,20.1,260.3,20.2z
		 M260.1,100.1c-0.9,1.3-1.6,2.3-2.5,3.5c1.5,0.2,2.7,0.3,4.1,0.5C261.1,102.8,260.6,101.6,260.1,100.1z M285.6,25.4
		c-0.1,1.6-0.2,2.9-0.3,4.4c1.4-0.8,2.5-1.4,3.8-2.1C287.9,26.8,286.9,26.2,285.6,25.4z M301.9,51.9c1.6,0.4,2.8,0.6,4.3,1
		c-0.4-1.5-0.8-2.6-1.2-3.9C303.9,49.9,303,50.8,301.9,51.9z M295.6,39.3c1.6-0.2,2.8-0.4,4.4-0.6c-0.9-1.2-1.6-2.2-2.5-3.3
		C296.8,36.7,296.3,37.8,295.6,39.3z M249.2,23c-1.3,0.6-2.5,1.1-3.8,1.7c1.3,0.9,2.3,1.7,3.6,2.7C249.1,25.8,249.1,24.5,249.2,23z
		 M227.5,51.8c-0.8-1-1.6-1.9-2.5-3c-0.4,1.2-0.7,2.4-1.1,3.8C225.3,52.3,226.5,52,227.5,51.8z M244.5,29.5c0-1.5,0-2.7,0-4.3
		c-1.3,0.8-2.3,1.4-3.5,2.2C242.3,28.2,243.3,28.8,244.5,29.5z M226.9,43.7c-0.6,1.4-1.1,2.5-1.6,3.9c1.6-0.2,2.8-0.3,4.3-0.5
		C228.7,45.9,227.9,45,226.9,43.7z M305.6,73.4c0.3-1.4,0.6-2.5,0.9-4c-1.5,0.4-2.7,0.8-4.2,1.2C303.5,71.6,304.5,72.4,305.6,73.4z
		 M237.4,35.5c-0.4-1.5-0.8-2.7-1.2-4c-1,0.9-1.9,1.8-3.1,2.8C234.8,34.7,235.9,35,237.4,35.5z M234.4,39.1c-0.7-1.5-1.2-2.6-1.8-4
		c-0.9,1.1-1.6,2.1-2.5,3.2C231.5,38.6,232.8,38.8,234.4,39.1z M302.8,56.5c1.6,0.5,2.7,0.9,4.2,1.4c-0.2-1.5-0.4-2.6-0.6-4.1
		C305.1,54.8,304.1,55.6,302.8,56.5z M222.7,63.9c0.1,1.5,0.2,2.7,0.3,4.1c1.4-0.9,2.4-1.6,3.7-2.4C225.3,65,224.2,64.5,222.7,63.9z
		 M307.1,64.2c-1.5,0.6-2.7,1.1-4.1,1.7c1.3,0.9,2.4,1.6,3.6,2.4C306.8,66.9,307,65.7,307.1,64.2z M222.9,57.6
		c1.5-0.5,2.7-0.9,4.2-1.4c-1.3-1-2.3-1.7-3.5-2.6C223.4,55,223.2,56.2,222.9,57.6z M224.2,73.1c1.1-1,2.1-1.8,3.3-2.8
		c-1.5-0.4-2.8-0.8-4.3-1.2C223.6,70.6,223.9,71.7,224.2,73.1z M304,78.4c0.4-1.5,0.8-2.6,1.2-4c-1.5,0.2-2.7,0.4-4.2,0.7
		C302.1,76.2,302.9,77.2,304,78.4z M247.6,100.7c1.4,0.5,2.6,0.9,3.9,1.4c-0.2-1.5-0.3-2.8-0.5-4.3
		C249.8,98.8,248.8,99.6,247.6,100.7z M255.1,21.1c1.1,1.3,1.9,2.2,2.8,3.4c0.5-1.5,0.8-2.7,1.3-4.1
		C257.8,20.7,256.6,20.9,255.1,21.1z M235.7,87c-1.5,0.3-2.8,0.6-4.3,0.9c1,1.1,1.8,2,2.7,3.2C234.7,89.6,235.2,88.4,235.7,87z
		 M276.8,25.8c1.1-1.1,2.1-2,3.2-3c-1.5-0.5-2.6-0.8-4-1.2C276.3,23,276.5,24.3,276.8,25.8z M296.7,83.4c0.8,1.4,1.4,2.6,2.1,3.9
		c0.8-1.2,1.5-2.2,2.3-3.4C299.6,83.8,298.4,83.6,296.7,83.4z M267.9,104.2c1.5-0.2,2.6-0.3,4.1-0.5c-0.9-1.3-1.6-2.3-2.4-3.5
		C269,101.6,268.5,102.7,267.9,104.2z M272.2,24.6c1-1.2,1.8-2.2,2.8-3.4c-1.5-0.3-2.7-0.5-4.1-0.8
		C271.4,21.9,271.8,23.1,272.2,24.6z M222.9,58.7c-0.1,1.6-0.2,2.8-0.2,4.2c1.4-0.7,2.5-1.3,3.9-2C225.3,60.1,224.2,59.5,222.9,58.7
		z M304.7,47.9c-0.6-1.4-1-2.5-1.6-3.8c-1,1.2-1.8,2.2-2.7,3.4C301.9,47.6,303.1,47.7,304.7,47.9z M283,100.3
		c1.2-0.6,2.3-1.2,3.6-1.8c-1.3-0.8-2.3-1.6-3.6-2.4C283,97.5,283,98.8,283,100.3z M302.6,43.1c-0.7-1.3-1.3-2.3-2.1-3.6
		c-0.8,1.3-1.5,2.4-2.2,3.6C299.8,43.1,301.1,43.1,302.6,43.1z M289.1,32.5c1.5-0.7,2.6-1.2,4-1.8c-1.1-0.9-2-1.6-3.2-2.5
		C289.7,29.7,289.4,31,289.1,32.5z M287.5,97.8c1.2-0.9,2.2-1.6,3.3-2.4c-1.4-0.7-2.5-1.2-3.8-1.8C287.1,95.1,287.3,96.3,287.5,97.8
		z M253,25.5c0.1-0.1,0.3-0.1,0.4-0.2c0.2-1.2,0.4-2.5,0.7-4c-1.4,0.5-2.5,0.8-3.5,1.2C251.4,23.6,252.2,24.6,253,25.5z M307,59
		c-1.4,0.8-2.5,1.4-3.9,2.2c1.5,0.7,2.6,1.2,3.9,1.8C307,61.6,307,60.5,307,59z M300.4,75.7c-0.4,1-0.8,1.8-1.1,2.6
		c1.2,0,2.2,0,3.4,0C301.9,77.4,301.3,76.6,300.4,75.7z M246.6,96.1c-1.7,0.3-1.4,1.6-1.3,2.6c0.1,0.5,0.6,1,0.9,1.5
		c0.1-0.1,0.3-0.2,0.4-0.2C246.6,98.6,246.6,97.4,246.6,96.1z M231.7,43.8c-1.3,0-2.3,0-3.6,0c0.8,1,1.4,1.8,2.2,2.7
		C230.8,45.6,231.2,44.9,231.7,43.8z M263.5,24.2c1,0,1.9,0,2.9,0c-0.5-1.1-1-2-1.5-3.2C264.3,22.2,263.9,23.2,263.5,24.2z
		 M230.6,78.3c-0.5-1.1-0.8-1.9-1.2-2.8c-0.8,0.9-1.5,1.6-2.5,2.6C228.3,78.1,229.3,78.2,230.6,78.3z M228.9,73.9
		c-0.4-1.1-0.6-1.9-1-2.9c-0.9,0.8-1.7,1.5-2.7,2.4C226.6,73.6,227.6,73.7,228.9,73.9z M302.9,60.4c1.2-0.7,2-1.2,3.1-1.9
		c-1.2-0.4-2.2-0.8-3.3-1.2C302.7,58.4,302.8,59.3,302.9,60.4z M234.2,39.9c-1.3-0.2-2.3-0.3-3.5-0.5c0.7,1.1,1.2,2,1.9,3.1
		C233.1,41.5,233.6,40.8,234.2,39.9z M290.6,94.4c-0.3-1.4-0.5-2.3-0.8-3.6c-0.9,0.8-1.6,1.3-2.4,2
		C288.5,93.3,289.4,93.8,290.6,94.4z M282,96.1c-1,0.5-1.8,0.8-2.7,1.3c1,0.8,1.8,1.4,2.7,2.2C282,98.3,282,97.3,282,96.1z
		 M232.8,82.4c-0.6-1.1-1-1.8-1.5-2.7c-0.7,1.1-1.3,1.9-2,3C230.6,82.6,231.5,82.5,232.8,82.4z M273,103.6c1-0.3,1.6-0.4,2.4-0.6
		c-0.3-1.3-0.6-2.4-0.9-3.4c-0.1,0-0.2,0-0.4,0.1C273.8,100.8,273.4,102,273,103.6z M305.7,68.7c-1.2-0.8-2.1-1.3-3.1-2
		c-0.2,1.1-0.3,1.9-0.4,2.9C303.4,69.3,304.3,69.1,305.7,68.7z M240.6,33.1c-1.3-0.5-2.2-0.9-3.4-1.4c0.4,1.4,0.7,2.3,1.1,3.4
		C239,34.4,239.7,33.9,240.6,33.1z M250.3,97.1c-1-0.4-1.8-0.8-2.6-1.1c0,1.2,0,2.2,0,3.4C248.7,98.6,249.4,97.9,250.3,97.1z
		 M223.9,58.3c1.2,0.7,2,1.2,3.1,1.9c0.1-1.1,0.2-2,0.3-3C226.2,57.5,225.2,57.8,223.9,58.3z M289.6,33.3c0.8,0.8,1.4,1.3,2.2,2.1
		c0.4-1.2,0.7-2.2,1-3.5C291.6,32.4,290.7,32.8,289.6,33.3z M305.2,53.6c-1.4-0.3-2.3-0.5-3.5-0.8c0.2,1.1,0.4,1.9,0.7,2.9
		C303.4,54.9,304.1,54.4,305.2,53.6z M296,83.9c-0.7,0.9-1.2,1.6-1.8,2.5c1.2,0.3,2.2,0.5,3.5,0.7C297.1,85.9,296.6,85,296,83.9z
		 M270.3,21.4c-0.7,1.1-1.3,1.9-1.9,3c1.1,0.1,2,0.2,3,0.3C271,23.6,270.7,22.7,270.3,21.4z M257.2,25.1c-0.9-1-1.5-1.8-2.4-2.7
		c-0.2,1.3-0.4,2.2-0.6,3.4C255.3,25.5,256.1,25.3,257.2,25.1z M284.7,26c-1.2,0.9-2,1.5-2.9,2.3c1,0.5,1.7,0.9,2.7,1.4
		C284.6,28.3,284.6,27.4,284.7,26z M297.6,42.7c0.6-1,1.2-1.9,1.9-3.1c-1.4,0.2-2.4,0.4-3.6,0.5C296.5,41.1,297,41.8,297.6,42.7z
		 M227.5,55.4c0.3-1.1,0.4-1.9,0.7-2.9c-1.3,0.3-2.3,0.5-3.6,0.8C225.8,54.1,226.5,54.7,227.5,55.4z M289.1,28.6
		c-1.3,0.7-2.1,1.3-3.2,1.9c0.9,0.6,1.6,1.1,2.4,1.7C288.5,31,288.7,30.1,289.1,28.6z M272.4,102.6c0.3-1.3,0.6-2.3,0.8-3.4
		c-1.1,0.3-1.9,0.4-2.9,0.7C271,100.8,271.6,101.5,272.4,102.6z M241.8,32.1c0.9-0.7,1.6-1.2,2.5-1.8c-1.1-0.6-2-1.1-3.1-1.7
		C241.4,29.9,241.5,30.8,241.8,32.1z M245.7,29.5c1-0.6,1.7-1,2.6-1.5c-1-0.7-1.8-1.3-2.9-2C245.5,27.2,245.6,28.2,245.7,29.5z
		 M232,86.9c1.4-0.3,2.4-0.5,3.6-0.7c-0.7-0.9-1.3-1.6-1.9-2.4C233.1,84.8,232.6,85.7,232,86.9z M227.7,69.3c-0.2-1.1-0.3-1.9-0.5-3
		c-1,0.7-1.9,1.3-2.9,2.1C225.5,68.8,226.5,69,227.7,69.3z M228.7,51c0.4-1.1,0.6-1.9,1-3c-1.2,0.2-2.2,0.3-3.3,0.4
		C227.1,49.3,227.8,50,228.7,51z M280.1,23.9c-1,1-1.7,1.8-2.4,2.6c0.9,0.3,1.7,0.6,2.6,1C280.2,26.2,280.2,25.2,280.1,23.9z
		 M275.9,25.8c-0.2-1.2-0.4-2.2-0.6-3.5c-0.9,1.1-1.5,1.9-2.3,2.8C274,25.4,274.8,25.6,275.9,25.8z M259.9,21.3
		c-0.4,1.3-0.8,2.3-1.2,3.5c1.1-0.2,2-0.3,3-0.4C261.1,23.3,260.6,22.4,259.9,21.3z M283.5,95.3c1,0.7,1.9,1.2,3,1.9
		c-0.2-1.3-0.3-2.3-0.4-3.5C285.2,94.2,284.5,94.7,283.5,95.3z M294.9,38.8c0.5-1.1,0.9-2,1.5-3.3c-1.3,0.4-2.3,0.7-3.4,1.1
		C293.7,37.4,294.2,38,294.9,38.8z M304.5,73.6c-1-0.9-1.7-1.5-2.7-2.3c-0.3,1.1-0.5,1.9-0.8,2.9C302.2,74,303.2,73.8,304.5,73.6z
		 M237.1,36.3c-1.2-0.3-2.2-0.6-3.5-0.9c0.6,1.2,1,2.1,1.5,3.2C235.8,37.8,236.4,37.2,237.1,36.3z M262.2,103.2
		c0.7-1.2,1.2-2.1,1.7-3.1c-1.1-0.1-1.9-0.2-3-0.3C261.4,101,261.8,101.9,262.2,103.2z M259.3,99.6c-1.1-0.2-1.9-0.3-3-0.5
		c0.4,1.2,0.6,2.2,1,3.4C258,101.4,258.6,100.7,259.3,99.6z M303.6,48.6c-1.2-0.1-2.1-0.2-3.3-0.3c0.3,1,0.6,1.8,0.9,2.9
		C302.1,50.3,302.8,49.6,303.6,48.6z M299.7,46.8c0.8-0.9,1.4-1.7,2.2-2.7c-1.3,0-2.2,0-3.5,0C298.9,45.1,299.2,45.9,299.7,46.8z
		 M235.3,90.7c1.2-0.4,2.2-0.7,3.2-1c-0.7-0.8-1.3-1.4-2-2.2C236.1,88.6,235.8,89.5,235.3,90.7z M290.8,89.7
		c1.3,0.4,2.3,0.7,3.5,1.1c-0.5-1.2-0.8-2.2-1.2-3.2C292.3,88.4,291.7,89,290.8,89.7z M300.5,82.9c-0.7-1-1.3-1.9-2-2.9
		c-0.5,0.9-1,1.7-1.5,2.6C298.3,82.7,299.3,82.8,300.5,82.9z M250,27.3c0.9-0.4,1.7-0.6,2.6-1c-0.9-0.8-1.6-1.5-2.6-2.5
		C250,25.2,250,26.1,250,27.3z M227.1,64.7c-0.1-1.2-0.1-2-0.2-3c-1.1,0.6-2,1-3.2,1.6C225,63.9,225.9,64.3,227.1,64.7z
		 M265.6,100.1c0.6,1.1,1.1,2,1.7,3.2c0.5-1.3,0.8-2.2,1.2-3.4C267.6,100,266.8,100,265.6,100.1z M302.9,65c1-0.5,2-0.9,3.2-1.4
		c-1.2-0.6-2.1-1-3.2-1.6C302.9,63.1,302.9,64,302.9,65z M255.6,99.9c-0.1,0-0.2,0-0.3,0c-0.3,1-0.5,2-0.8,3.1
		c0.8,0.1,1.4,0.2,2.1,0.3C256.2,102.1,255.9,101,255.6,99.9z M252.3,100.9c0.1,0,0.3,0,0.4,0c0.2-0.8,0.5-1.6,0.8-2.6
		c-0.5-0.2-0.9-0.3-1.6-0.6C252,99,252.1,100,252.3,100.9z M235.7,91.5c3,0.5,3.1,0.5,3-1C237.7,90.8,236.7,91.2,235.7,91.5z"/>
</g>
<g id="Layer_2">
</g>
</svg>
