<?xml version="1.0" encoding="utf-8"?>
<!-- Generator: Adobe Illustrator 23.0.1, SVG Export Plug-In . SVG Version: 6.00 Build 0)  -->
<svg version="1.1" xmlns="http://www.w3.org/2000/svg" xmlns:xlink="http://www.w3.org/1999/xlink" x="0px" y="0px"
	 viewBox="0 0 3763.2 1160" style="enable-background:new 0 0 3763.2 1160;" xml:space="preserve">
<style type="text/css">
	.st0{display:none;}
	.st1{display:inline;}
	.st2{fill:#008CFF;}
	.st3{fill:#494949;}
	.st4{fill:#FFFFFF;}
	.st5{fill:#999999;}
	.st6{fill:#7C7C7C;}
</style>
<g id="Layer_1" class="st0">
	<g class="st1">
		<rect x="-4407.5" y="-388.5" class="st2" width="1146" height="677"/>
		<path d="M-3262-388v676h-1145v-676H-3262 M-3261-389h-1147v678h1147V-389L-3261-389z"/>
	</g>
</g>
<g id="Layer_2">
	<path class="st3" d="M3339.1-819H58.9C8.7-819-32-859.7-32-909.9v-400.2c0-50.2,40.7-90.9,90.9-90.9h3280.2
		c50.2,0,90.9,40.7,90.9,90.9v400.2C3430-859.7,3389.3-819,3339.1-819z"/>
	<path class="st4" d="M-4030.5-92.8c-0.1-3.1-0.7-5.7-1.7-7.9c-1-2.2-2.4-4.1-4.2-5.4c-1.8-1.4-3.7-2.4-5.9-3
		c-2.2-0.6-4.4-0.8-6.5-0.6c-2.2,0.2-4.3,1-6.4,2.3c-2,1.2-3.9,3.2-5.7,5.9c-1.8,2.7-3.3,6-4.4,9.9c-1.1,4-1.7,7.5-1.6,10.6
		c0.1,3.1,0.7,5.7,1.7,7.9c1,2.2,2.4,4,4.1,5.4c1.8,1.4,3.8,2.4,6,3.1c2.2,0.6,4.5,0.8,6.7,0.5c2.3-0.3,4.4-1.1,6.4-2.5
		c2.3-1.5,4.2-3.6,5.8-6.2c1.6-2.5,3-5.7,4-9.4C-4030.9-86.1-4030.4-89.7-4030.5-92.8z M-4030.5-92.8c-0.1-3.1-0.7-5.7-1.7-7.9
		c-1-2.2-2.4-4.1-4.2-5.4c-1.8-1.4-3.7-2.4-5.9-3c-2.2-0.6-4.4-0.8-6.5-0.6c-2.2,0.2-4.3,1-6.4,2.3c-2,1.2-3.9,3.2-5.7,5.9
		c-1.8,2.7-3.3,6-4.4,9.9c-1.1,4-1.7,7.5-1.6,10.6c0.1,3.1,0.7,5.7,1.7,7.9c1,2.2,2.4,4,4.1,5.4c1.8,1.4,3.8,2.4,6,3.1
		c2.2,0.6,4.5,0.8,6.7,0.5c2.3-0.3,4.4-1.1,6.4-2.5c2.3-1.5,4.2-3.6,5.8-6.2c1.6-2.5,3-5.7,4-9.4
		C-4030.9-86.1-4030.4-89.7-4030.5-92.8z M-4142-341l-69,421l345,119l8-409L-4142-341z M-4113.8-68.9l-15.2-54.2l-13.3,46l-15.8-4.6
		l19.3-67.1l20.7,6l13.4,45.5l11.1-38.4l15.9,4.6l-19.3,67.1L-4113.8-68.9z M-4014.1-76.9c-3.1,10.7-8.6,18.3-16.5,22.8
		c-7.9,4.5-17.3,5.2-28.1,2.1c-10.8-3.1-18.3-8.7-22.6-16.8c-4.3-8-4.9-17.4-1.8-28.1c3.1-10.8,8.6-18.4,16.6-22.9
		c7.9-4.5,17.3-5.2,28.1-2.1c10.8,3.1,18.3,8.7,22.6,16.7C-4011.6-97.1-4011-87.7-4014.1-76.9z M-3987.1-31.5l-17.3-5l15.6-54.1
		l-20.9-6l3.7-13l59.2,17.1l-3.7,13l-20.9-6L-3987.1-31.5z M-3898.6-64.5l-31.3-9l-3.3,11.6l29.1,8.4l-3.7,13L-3937-49l-4.8,16.6
		l31.3,9l-3.7,13l-48.5-14l19.4-67.1l48.5,14L-3898.6-64.5z M-4032.2-100.7c-1-2.2-2.4-4.1-4.2-5.4c-1.8-1.4-3.7-2.4-5.9-3
		c-2.2-0.6-4.4-0.8-6.5-0.6c-2.2,0.2-4.3,1-6.4,2.3c-2,1.2-3.9,3.2-5.7,5.9c-1.8,2.7-3.3,6-4.4,9.9c-1.1,4-1.7,7.5-1.6,10.6
		c0.1,3.1,0.7,5.7,1.7,7.9c1,2.2,2.4,4,4.1,5.4c1.8,1.4,3.8,2.4,6,3.1c2.2,0.6,4.5,0.8,6.7,0.5c2.3-0.3,4.4-1.1,6.4-2.5
		c2.3-1.5,4.2-3.6,5.8-6.2c1.6-2.5,3-5.7,4-9.4c1.2-4,1.7-7.6,1.6-10.7C-4030.6-95.9-4031.2-98.5-4032.2-100.7z M-4030.5-92.8
		c-0.1-3.1-0.7-5.7-1.7-7.9c-1-2.2-2.4-4.1-4.2-5.4c-1.8-1.4-3.7-2.4-5.9-3c-2.2-0.6-4.4-0.8-6.5-0.6c-2.2,0.2-4.3,1-6.4,2.3
		c-2,1.2-3.9,3.2-5.7,5.9c-1.8,2.7-3.3,6-4.4,9.9c-1.1,4-1.7,7.5-1.6,10.6c0.1,3.1,0.7,5.7,1.7,7.9c1,2.2,2.4,4,4.1,5.4
		c1.8,1.4,3.8,2.4,6,3.1c2.2,0.6,4.5,0.8,6.7,0.5c2.3-0.3,4.4-1.1,6.4-2.5c2.3-1.5,4.2-3.6,5.8-6.2c1.6-2.5,3-5.7,4-9.4
		C-4030.9-86.1-4030.4-89.7-4030.5-92.8z M-4030.5-92.8c-0.1-3.1-0.7-5.7-1.7-7.9c-1-2.2-2.4-4.1-4.2-5.4c-1.8-1.4-3.7-2.4-5.9-3
		c-2.2-0.6-4.4-0.8-6.5-0.6c-2.2,0.2-4.3,1-6.4,2.3c-2,1.2-3.9,3.2-5.7,5.9c-1.8,2.7-3.3,6-4.4,9.9c-1.1,4-1.7,7.5-1.6,10.6
		c0.1,3.1,0.7,5.7,1.7,7.9c1,2.2,2.4,4,4.1,5.4c1.8,1.4,3.8,2.4,6,3.1c2.2,0.6,4.5,0.8,6.7,0.5c2.3-0.3,4.4-1.1,6.4-2.5
		c2.3-1.5,4.2-3.6,5.8-6.2c1.6-2.5,3-5.7,4-9.4C-4030.9-86.1-4030.4-89.7-4030.5-92.8z"/>
	<path class="st4" d="M-3711.9-75.6l-2.4,26.3l16.7-4.1L-3711.9-75.6z M-3711.9-75.6l-2.4,26.3l16.7-4.1L-3711.9-75.6z
		 M-3711.9-75.6l-2.4,26.3l16.7-4.1L-3711.9-75.6z M-3711.9-75.6l-2.4,26.3l16.7-4.1L-3711.9-75.6z M-3469-299l-363,90v409l445-119
		L-3469-299z M-3758.6-10.7l-17.5,4.3l-13.4-54.7l-21.2,5.2l-3.2-13.1l59.8-14.7l3.2,13.1l-21.2,5.2L-3758.6-10.7z M-3682.3-29.4
		l-8.1-12.5l-25.1,6.2l-1.4,14.9l-17.6,4.3l8.4-73.9l20.1-4.9l41.7,61.6L-3682.3-29.4z M-3612.7-46.5l-26.9-22.2l-2.8,6l5.4,22.1
		l-17.5,4.3l-16.6-67.8l17.5-4.3l7.5,30.7l16.7-36.6l20.3-5l-18.8,37.9l36.8,29.6L-3612.7-46.5z M-3582.6-53.9l-16.6-67.8l49-12
		l3.2,13.1l-31.6,7.8l2.9,11.7l29.4-7.2l3.2,13.1l-29.4,7.2l4.1,16.8l31.6-7.8l3.2,13.1L-3582.6-53.9z M-3499.5-100.6l-8.1,2
		l6.1,24.9l-17.4,4.3l-16.6-67.8l29.3-7.2c4-1,7.5-1.6,10.5-1.8c3-0.3,5.9,0.1,8.8,1c2.9,0.9,5.4,2.4,7.5,4.4c2.1,2,3.6,4.9,4.5,8.5
		c1.2,5,1.1,9.4-0.5,13.1c-1.6,3.7-4.2,7.2-8,10.3l29.7,23.5l-21.4,5.2L-3499.5-100.6z M-3494.6-130c-1-1-2.4-1.7-4.3-2
		c-1.3-0.2-2.8-0.2-4.4,0.1c-1.6,0.3-3.4,0.7-5.6,1.2l-6.3,1.5l4.5,18.3l5.4-1.3c2.8-0.7,5.1-1.4,6.9-2.1c1.8-0.7,3.2-1.7,4.3-3
		c1-1.2,1.6-2.5,1.9-3.8c0.3-1.3,0.2-2.9-0.3-4.8C-3492.9-127.5-3493.6-128.9-3494.6-130z M-3714.3-49.3l16.7-4.1l-14.3-22.2
		L-3714.3-49.3z M-3711.9-75.6l-2.4,26.3l16.7-4.1L-3711.9-75.6z M-3711.9-75.6l-2.4,26.3l16.7-4.1L-3711.9-75.6z"/>
	<g>
		<g>
		</g>
	</g>
	<polygon class="st4" points="-2820,11 -3165,-108 -3096,-529 -2812,-398 	"/>
	<path class="st4" d="M-2423-487l-363,90V12l445-119L-2423-487z M-2730-333.4c0-3.6,2.9-6.5,6.5-6.5c3.6,0,6.5,2.9,6.5,6.5
		c0,3.6-2.9,6.5-6.5,6.5C-2727.1-326.9-2730-329.8-2730-333.4z M-2726-259.4c0-3.6,2.9-6.5,6.5-6.5c3.6,0,6.5,2.9,6.5,6.5
		c0,3.6-2.9,6.5-6.5,6.5C-2723.1-252.9-2726-255.8-2726-259.4z M-2717-184.4c0-3.6,2.9-6.5,6.5-6.5c3.6,0,6.5,2.9,6.5,6.5
		c0,3.6-2.9,6.5-6.5,6.5C-2714.1-177.9-2717-180.8-2717-184.4z M-2704.5-95.9c-3.6,0-6.5-2.9-6.5-6.5c0-3.6,2.9-6.5,6.5-6.5
		c3.6,0,6.5,2.9,6.5,6.5C-2698-98.8-2700.9-95.9-2704.5-95.9z M-2695-341.6l230-62.4l1,3.5l-230.1,62.4L-2695-341.6z M-2689.3-265.9
		l-0.1,0l-0.3-1.1l0.1,0l-0.4-1.6l230-62.4l1,3.5l-230.1,62.4L-2689.3-265.9z M-2682-191.6l230-62.4l1,3.5l-230.1,62.4L-2682-191.6z
		 M-2671.4-108l-0.9-3.4l246.9-66.6l0.9,3.5L-2671.4-108z"/>
	<rect x="-3165" y="26.5" style="fill:none;" width="824" height="173.5"/>
	<text transform="matrix(1 0 0 1 -3164.9111 114.3291)" class="st4" style="font-family:'Verdana-Bold'; font-size:116px;">NOTE TAKER</text>
	<g>
		<g>
		</g>
	</g>
	<g>
		<polygon class="st4" points="465,-853 120,-972 189,-1393 473,-1262 		"/>
		<path class="st4" d="M862-1351l-363,90v409l445-119L862-1351z M555-1197.4c0-3.6,2.9-6.5,6.5-6.5c3.6,0,6.5,2.9,6.5,6.5
			c0,3.6-2.9,6.5-6.5,6.5C557.9-1190.9,555-1193.8,555-1197.4z M559-1123.4c0-3.6,2.9-6.5,6.5-6.5c3.6,0,6.5,2.9,6.5,6.5
			c0,3.6-2.9,6.5-6.5,6.5C561.9-1116.9,559-1119.8,559-1123.4z M568-1048.4c0-3.6,2.9-6.5,6.5-6.5c3.6,0,6.5,2.9,6.5,6.5
			c0,3.6-2.9,6.5-6.5,6.5C570.9-1041.9,568-1044.8,568-1048.4z M580.5-959.9c-3.6,0-6.5-2.9-6.5-6.5c0-3.6,2.9-6.5,6.5-6.5
			c3.6,0,6.5,2.9,6.5,6.5C587-962.8,584.1-959.9,580.5-959.9z M590-1205.6l230-62.4l1,3.5l-230.1,62.4L590-1205.6z M595.7-1129.9
			l-0.1,0l-0.3-1.1l0.1,0l-0.4-1.6l230-62.4l1,3.5l-230.1,62.4L595.7-1129.9z M603-1055.6l230-62.4l1,3.5l-230.1,62.4L603-1055.6z
			 M613.6-972l-0.9-3.4l246.9-66.6l0.9,3.4L613.6-972z"/>
	</g>
	<g>
		<g>
		</g>
	</g>
	<polygon class="st5" points="-1718,-372 -2063,-491 -1994,-912 -1710,-781 	"/>
	<path class="st6" d="M-1321-870l-363,90v409l445-119L-1321-870z M-1628-716.4c0-3.6,2.9-6.5,6.5-6.5c3.6,0,6.5,2.9,6.5,6.5
		c0,3.6-2.9,6.5-6.5,6.5C-1625.1-709.9-1628-712.8-1628-716.4z M-1624-642.4c0-3.6,2.9-6.5,6.5-6.5c3.6,0,6.5,2.9,6.5,6.5
		c0,3.6-2.9,6.5-6.5,6.5C-1621.1-635.9-1624-638.8-1624-642.4z M-1615-567.4c0-3.6,2.9-6.5,6.5-6.5c3.6,0,6.5,2.9,6.5,6.5
		c0,3.6-2.9,6.5-6.5,6.5C-1612.1-560.9-1615-563.8-1615-567.4z M-1602.5-478.9c-3.6,0-6.5-2.9-6.5-6.5c0-3.6,2.9-6.5,6.5-6.5
		c3.6,0,6.5,2.9,6.5,6.5C-1596-481.8-1598.9-478.9-1602.5-478.9z M-1593-724.6l230-62.4l1,3.5l-230.1,62.4L-1593-724.6z
		 M-1587.3-648.9l-0.1,0l-0.3-1.1l0.1,0l-0.4-1.6l230-62.4l1,3.5l-230.1,62.4L-1587.3-648.9z M-1580-574.6l230-62.4l1,3.5
		l-230.1,62.4L-1580-574.6z M-1569.4-491l-0.9-3.4l246.9-66.6l0.9,3.5L-1569.4-491z"/>
	<g>
		<g>
		</g>
	</g>
	<g>
		<polygon class="st5" points="2736.1,1157.9 1996.4,902.7 2144.3,0 2753.3,280.9 		"/>
		<path class="st6" d="M3587.4,90.1L2809,283v877l954.2-255.2L3587.4,90.1z M2929.1,419.4c0-7.7,6.2-13.9,13.9-13.9
			c7.7,0,13.9,6.2,13.9,13.9c0,7.6-6.2,13.9-13.9,13.9C2935.3,433.3,2929.1,427.1,2929.1,419.4z M2937.7,578.1
			c0-7.7,6.2-13.9,13.9-13.9c7.7,0,13.9,6.2,13.9,13.9c0,7.6-6.2,13.9-13.9,13.9C2943.9,591.9,2937.7,585.7,2937.7,578.1z
			 M2957,738.9c0-7.7,6.2-13.9,13.9-13.9c7.7,0,13.9,6.2,13.9,13.9c0,7.6-6.2,13.9-13.9,13.9C2963.2,752.8,2957,746.5,2957,738.9z
			 M2983.7,928.6c-7.7,0-13.9-6.2-13.9-13.9c0-7.7,6.2-13.9,13.9-13.9c7.7,0,13.9,6.2,13.9,13.9
			C2997.6,922.4,2991.3,928.6,2983.7,928.6z M3004.1,401.8L3497.3,268l2.1,7.6l-493.3,133.7L3004.1,401.8z M3016.4,564.1l-0.2,0.1
			l-0.6-2.4l0.2-0.1l-0.9-3.5L3508,424.5l2.1,7.6l-493.3,133.7L3016.4,564.1z M3031.9,723.4l493.2-133.7l2.1,7.6L3034,731
			L3031.9,723.4z M3054.8,902.6l-2-7.4l529.3-142.7l2,7.4L3054.8,902.6z"/>
	</g>
	<g>
		<path d="M-1897.9-1162.6h-36l-61.4-99.3v99.3h-34.2v-144.7h44.6l52.8,82.9v-82.9h34.2V-1162.6z"/>
		<path d="M-1720.3-1234.9c0,23.1-6.6,41.4-19.8,54.9c-13.2,13.6-31.5,20.4-54.8,20.4c-23.3,0-41.5-6.8-54.7-20.4
			c-13.2-13.6-19.8-31.9-19.8-54.9c0-23.3,6.6-41.6,19.8-55.1c13.2-13.5,31.4-20.3,54.7-20.3c23.2,0,41.4,6.8,54.7,20.3
			C-1726.9-1276.5-1720.3-1258.1-1720.3-1234.9z M-1769.7-1198.3c3.6-4.4,6.3-9.6,8.1-15.6c1.7-6,2.6-13,2.6-21.1
			c0-8.7-1-16.1-3-22.2c-2-6.1-4.6-11-7.9-14.8c-3.3-3.9-7.1-6.7-11.4-8.5c-4.3-1.7-8.8-2.6-13.5-2.6c-4.7,0-9.2,0.8-13.4,2.5
			c-4.2,1.7-8,4.5-11.5,8.4c-3.2,3.6-5.9,8.6-7.9,15c-2,6.4-3.1,13.8-3.1,22.2c0,8.6,1,16,3,22c2,6.1,4.6,11,7.8,14.8
			c3.2,3.8,7,6.6,11.4,8.5c4.3,1.8,8.9,2.7,13.7,2.7s9.4-0.9,13.7-2.8C-1776.8-1191.5-1773-1194.4-1769.7-1198.3z"/>
		<path d="M-1578.6-1279.3h-45.2v116.7h-37.3v-116.7h-45.2v-28h127.7V-1279.3z"/>
		<path d="M-1451.5-1162.6h-104.6v-144.7h104.6v28h-67.5v25h62.7v28h-62.7v35.8h67.5V-1162.6z"/>
		<path d="M-1239-1279.3h-45.2v116.7h-37.3v-116.7h-45.2v-28h127.7V-1279.3z"/>
		<path d="M-1082.8-1162.6h-38.5l-10.1-29.2h-53.5l-10.1,29.2h-37.6l53.4-144.7h42.9L-1082.8-1162.6z M-1140.4-1218.4l-17.8-51.8
			l-17.8,51.8H-1140.4z"/>
		<path d="M-927-1162.6h-45.8l-43.2-57.9l-8.7,10.7v47.2h-37.3v-144.7h37.3v65.6l51.7-65.6h43.2l-56.6,66.9L-927-1162.6z"/>
		<path d="M-804-1162.6h-104.6v-144.7H-804v28h-67.5v25h62.7v28h-62.7v35.8h67.5V-1162.6z"/>
		<path d="M-633.3-1162.6h-45.6l-39.4-53.1h-17.3v53.1h-37.1v-144.7h62.6c8.6,0,15.9,0.5,22.1,1.5c6.2,1,11.9,3.1,17.3,6.3
			c5.4,3.2,9.8,7.4,13,12.6c3.2,5.1,4.8,11.6,4.8,19.4c0,10.7-2.5,19.4-7.4,26.1c-5,6.7-12,12.3-21.2,16.8L-633.3-1162.6z
			 M-691.5-1263c0-3.6-0.7-6.7-2.2-9.3c-1.5-2.6-4-4.6-7.7-6.1c-2.5-1-5.5-1.7-8.8-1.9c-3.4-0.2-7.3-0.3-11.8-0.3h-13.5v39h11.5
			c6,0,10.9-0.3,15-0.9c4-0.6,7.4-1.9,10.1-4c2.6-2,4.5-4.2,5.7-6.7C-692.1-1255.6-691.5-1258.9-691.5-1263z"/>
	</g>
	<g>
		<path d="M317,347.3c0,5.5-1.9,19.6-5.8,42.4c-4.7,27.7-8.1,52.2-10.3,73.4c-5.6,57.3-8.4,104.3-8.4,141c0,10.1,0.5,22.8,1.5,37.8
			c1,15.1,1.5,25.1,1.5,30c0,18.5-7.5,27.8-22.6,27.8c-9.6,0-19.7-4.9-30.5-14.6c-9-8.2-20.9-22.5-35.7-42.8
			c-50.7-70.2-96.3-149.1-136.9-236.6C55.6,457,47.2,528,44.6,618.4c-1.1,38.9-1.9,59.8-2.5,62.7c-2.1,13.2-8.5,19.7-19.3,19.7
			c-10.8,0-17.8-7.2-21-21.6C0.6,673.4,0,661.9,0,645c0-73.7,9.3-156.5,27.8-248.1c5.2-25.4,10.4-43.2,15.6-53.5
			c6.2-12.1,14.3-18.1,24.5-18.1c6.4,0,11.8,3.8,16.1,11.5c0.3,0.3,5.1,11.2,14.6,32.7c46.7,105.5,97.7,191.6,152.9,258.2v-15.2
			c0-85.5,6.4-165.4,19.3-239.5c3-17.7,6.4-30.2,10.1-37.6c4.1-8.1,9.6-12.1,16.4-12.1C310.4,323.2,317,331.2,317,347.3z"/>
		<path d="M587.8,506.8c0,40.3-11.8,72.4-35.4,96.3C528.8,627,497.4,639,458,639c-32.6,0-58.2-11.1-76.7-33.4
			c-18.5-22.3-27.8-53.2-27.8-92.8c0-41.7,11.2-74,33.5-97c21.9-22.6,52.4-33.9,91.3-33.9c32.6,0,59,11.4,79.2,34.3
			C577.7,439,587.8,469.2,587.8,506.8z M546.9,507.2c0-27.5-6.7-49.1-20-64.7c-13.4-15.6-31.6-23.3-54.8-23.3
			c-51.7,0-77.5,31-77.5,93.1c0,28.6,5.6,50.7,16.9,66.1c11.2,15.4,27.3,23.1,48.3,23.1c27.1,0,48.4-8.3,63.9-24.9
			C539.1,560.1,546.9,537,546.9,507.2z"/>
		<path d="M794.8,464.7c0,4.8-1.5,8.9-4.5,12.2c-3,3.4-6.6,5-10.7,5c-2.1,0-9.9-2.7-23.5-8c-13.6-5.3-27-8-40-8
			c-4.1,0-8.4,0.3-13,0.8c-5.1,22.3-7.6,42.8-7.6,61.5c0,24,4,42.4,12.1,55.3c8.1,12.9,19.3,19.3,33.7,19.3c4.4,0,10.2-1.4,17.4-4.2
			c7.2-2.8,12.4-4.2,15.5-4.2c11,0,16.4,6.4,16.4,19.3c0,8.4-4.5,15.1-13.6,20.4c-9,5.2-21.4,7.8-37,7.8
			c-58.1,0-87.2-38.7-87.2-116.2c0-16.3,2-34.3,6-53.9c-3.8,0.5-12.1,2.1-24.9,4.7c-8.4,1.6-14.5,2.5-18.5,2.5
			c-14.7,0-22-5.6-22-16.9c0-15.3,25.3-25.4,75.9-30c10.4-33,23.2-49.5,38.2-49.5c4.7,0,8.6,1.7,11.9,5c3.3,3.4,4.9,7.4,4.9,12.2
			c0,3.6-1,8.1-3.1,13.5c-2.1,5.4-4.1,10.9-6.2,16.3C768.3,431.5,794.8,443.1,794.8,464.7z"/>
		<path d="M1024,480.7c0,14.3-4.9,24.8-14.8,31.7c-4.4,3-18.3,6.9-41.7,11.7c-31.1,6.4-57.6,9.7-79.6,9.7c-10,0-22.1-0.7-36.2-2.1
			c0,51.7,19.7,77.5,59,77.5c10.8,0,20.6-3.1,29.4-9.3c4.4-3,12.3-10.3,23.6-22c4.1-4.2,8.4-6.4,13-6.4c5.8,0,10.7,2.2,14.9,6.5
			c4.2,4.3,6.3,9.6,6.3,15.9c0,5.2-2,10-6,14.4c-23.6,25.8-51.2,38.7-82.9,38.7c-65.5,0-98.3-37.9-98.3-113.7
			c0-39.1,10.4-72.8,31.2-101.1c23.7-32.2,53-48.3,88-48.3c27.3,0,49.8,9.1,67.4,27.3C1015.2,429.4,1024,452.6,1024,480.7z
			 M983.1,483.2c-0.8-19-5.8-34.1-14.9-45.2c-9.1-11.1-20.5-16.7-34.2-16.7c-17.8,0-33.5,6.4-47.1,19.1
			c-14,12.9-24.4,31.1-31.2,54.7c9.7,1.1,20.1,1.6,31,1.6C913.3,496.7,945.4,492.2,983.1,483.2z"/>
		<path d="M1483.7,389.4c0,5.3-2,10.2-6.1,14.5c-4,4.3-8.5,6.5-13.3,6.5c-3.3,0-7.3-1.2-12.1-3.5c-6.4-3.2-10.3-4.9-11.5-5.3
			c-18-5.8-52.6-10.1-104-13.2c1.6,63.2,2.5,109.6,2.5,139.4c0,57.8-1.4,107.1-4.1,147.8c-1,13.2-3,22.4-6.2,27.8
			c-3.4,5.9-9.1,8.8-17.1,8.8c-13.2,0-19.7-8.8-19.7-26.5c0-0.7,1.1-19.1,3.2-55.2c2.1-36.1,3.2-71.9,3.2-107.2
			c0-19.5-0.7-64.6-2.1-135.3c-50.4,0.5-86.1,6.6-107.1,18.1c-2.5,27.5-10.8,41.3-25.1,41.3c-11.5,0-17.3-8.6-17.3-25.7
			c0-27.5,8.7-45.5,26.1-53.9c29.5-14,74.9-21,136.3-21C1425.6,346.9,1483.7,361,1483.7,389.4z"/>
		<path d="M1670.6,531.7c0,37.6-5.5,76.8-16.4,117.8c-5.5,20.6-13.6,30.8-24.5,30.8c-11.1,0-16.7-6.3-16.7-18.9c0-2.9,0.1-5,0.4-6.4
			c-14,7.5-28.4,11.3-43.4,11.3c-26.5,0-47.1-7.5-62-22.4c-14.9-14.9-22.3-35.8-22.3-62.7c0-27.3,8-48.9,24.1-64.9
			c16-16,37.3-24,63.9-24c23.2,0,42.7,7.7,58.6,23.2c-2.6-54.1-22.7-81.2-60.2-81.2c-8.4,0-17.3,2.5-26.8,7.5
			c-9.5,5-15.7,7.5-18.6,7.5c-4.7,0-8.8-1.9-12.5-5.8c-3.7-3.8-5.6-8.2-5.6-13.2c0-8.2,6-15.8,17.9-22.8c12.7-7.5,28-11.3,45.6-11.3
			C1637.8,396.4,1670.6,441.5,1670.6,531.7z M1628.9,580c0-34.8-16.4-52.2-49.1-52.2c-35.9,0-53.9,17.3-53.9,51.8
			c0,34.8,17.8,52.2,53.5,52.2c15.5,0,27.6-4.6,36.4-13.7C1624.5,609,1628.9,596.3,1628.9,580z"/>
		<path d="M1786.8,364.5c0-0.3-1.5,4.1-4.5,13.2c-3.4,10.6-6.2,22.1-8.2,34.7c-3,18.4-4.5,38.6-4.5,60.6c0,12.5,0.9,31.3,2.6,56.5
			c1.7,25.2,2.6,44.3,2.6,57.2c0,18.2-1.6,31.2-4.9,38.9c-3.6,8.4-9.9,12.5-19.1,12.5c-7.5,0-12.5-2.8-14.8-8.4
			c-1.4-3.3-2.1-9.3-2.1-18.1c0-6.9,0.1-15.4,0.2-25.7c0.1-10.3,0.2-17.1,0.2-20.6c0-14.1-0.6-32.8-1.9-55.9
			c-1.2-23.2-1.9-39.3-1.9-48.5c0-36.5,3.3-65,9.9-85.7c6.4-19.7,15.1-29.6,25.9-29.6c5.3,0,10.1,1.9,14.3,5.8
			C1784.7,355.2,1786.8,359.6,1786.8,364.5z M1930.7,406c0,8.5-8.9,17.4-26.7,26.7c-26,12.3-52,24.7-78,37
			c32.3,32.9,57.4,62.2,75.3,87.9c16,23,24.1,39.7,24.1,50.2c0,5.9-2,11-5.9,15.2c-3.9,4.3-8.4,6.4-13.5,6.4
			c-5.5,0-10.3-3.2-14.4-9.7c-10-16.2-24.6-38.8-43.8-67.8c-13.7-19.2-31.8-39-54.3-59.4c-7.9-7.1-12.1-10.8-12.3-11.1
			c-4.1-5.1-6.2-11-6.2-17.9c0-6.3,4.3-11.7,13-16.2c12.1-5.3,24.1-10.8,36.2-16.2c11.6-5.6,30.3-15.8,55.9-30.4
			c15.5-8.9,25.8-13.4,30.8-13.4C1924.1,387.1,1930.7,393.4,1930.7,406z"/>
		<path d="M2165.2,480.7c0,14.3-4.9,24.8-14.8,31.7c-4.4,3-18.3,6.9-41.7,11.7c-31.1,6.4-57.6,9.7-79.6,9.7c-10,0-22.1-0.7-36.2-2.1
			c0,51.7,19.7,77.5,59,77.5c10.8,0,20.6-3.1,29.4-9.3c4.4-3,12.3-10.3,23.6-22c4.1-4.2,8.4-6.4,13-6.4c5.8,0,10.7,2.2,14.9,6.5
			c4.2,4.3,6.3,9.6,6.3,15.9c0,5.2-2,10-6,14.4c-23.6,25.8-51.2,38.7-82.9,38.7c-65.5,0-98.3-37.9-98.3-113.7
			c0-39.1,10.4-72.8,31.2-101.1c23.7-32.2,53-48.3,88-48.3c27.3,0,49.8,9.1,67.4,27.3C2156.4,429.4,2165.2,452.6,2165.2,480.7z
			 M2124.3,483.2c-0.8-19-5.8-34.1-14.9-45.2c-9.1-11.1-20.5-16.7-34.2-16.7c-17.8,0-33.5,6.4-47.1,19.1
			c-14,12.9-24.4,31.1-31.2,54.7c9.7,1.1,20.1,1.6,31,1.6C2054.5,496.7,2086.6,492.2,2124.3,483.2z"/>
		<path d="M2356,451.3c0,5.2-1.6,9.6-4.7,13.2c-3.2,3.6-6.9,5.3-11.3,5.3c-3.3,0-8.2-2.4-14.6-7.2c-6.4-4.8-12.3-7.2-17.5-7.2
			c-13,0-23.6,5.7-31.7,17.2c-8.1,11.4-12.1,26.9-12.1,46.4v26.9c0,30-3.2,53.9-9.5,71.5c-5.9,16.6-13.5,24.9-22.8,24.9
			c-12.5,0-18.7-6.2-18.7-18.5c0-2.5,1.9-11.5,5.8-27.2c3.8-15.7,5.8-30.5,5.8-44.3c0-38.4-5.5-69.1-16.4-92.1
			c-0.3-0.7-4-7.6-11.3-20.8c-3.7-6.7-5.6-12.1-5.6-16c0-4.4,2.1-8.5,6.4-12.3c4.2-3.8,8.8-5.8,13.8-5.8c14.5,0,26.6,17.8,36.2,53.5
			c14.3-27.4,35-41.1,62.3-41.1c13.7,0,24.8,3.2,33.3,9.6C2351.8,433.5,2356,441.6,2356,451.3z"/>
	</g>
	<rect x="875.9" y="-2239.3" style="fill:none;" width="1512.9" height="279.1"/>
	<text transform="matrix(1 0 0 1 875.9277 -2051.1787)" style="font-family:'LucidaCalligraphy-Italic'; font-size:220px;">Note Taker</text>
	<rect x="879.9" y="-1895.3" style="fill:none;" width="1512.9" height="279.1"/>
	<text transform="matrix(1 0 0 1 879.9277 -1707.1787)" style="font-family:'LucidaHandwriting-Italic'; font-size:220px;">Note Taker</text>
</g>
<g id="original">
	<polygon class="st4" points="-3961,-452 -4306,-571 -4237,-992 -3953,-861 	"/>
	<polygon class="st4" points="-3482,-570 -3927,-451 -3927,-860 -3564,-950 	"/>
	<g>
		<g>
		</g>
	</g>
	<g>
		<g>
			<path d="M-3322.9-661.4h-9.7l-34.6-53.6c-0.9-1.3-1.6-2.7-2.2-4.2h-0.3c0.3,1.4,0.4,4.5,0.4,9.2v48.6h-7.9v-67.2h10.2l33.7,52.7
				c1.4,2.2,2.3,3.7,2.7,4.5h0.2c-0.3-1.9-0.5-5.2-0.5-9.9v-47.3h7.9V-661.4z"/>
			<path d="M-3278.1-660.3c-9.5,0-17.2-3.1-22.9-9.4s-8.6-14.5-8.6-24.5c0-10.8,2.9-19.4,8.8-25.9c5.8-6.4,13.8-9.7,23.9-9.7
				c9.3,0,16.8,3.1,22.4,9.4c5.7,6.3,8.5,14.4,8.5,24.5c0,11-2.9,19.6-8.7,26S-3268.4-660.3-3278.1-660.3z M-3277.6-722.7
				c-7.1,0-12.8,2.5-17.2,7.6c-4.4,5.1-6.6,11.8-6.6,20.1c0,8.3,2.1,14.9,6.4,20c4.3,5,9.9,7.6,16.8,7.6c7.4,0,13.2-2.4,17.4-7.2
				c4.3-4.8,6.4-11.5,6.4-20.2c0-8.9-2.1-15.7-6.2-20.6C-3264.6-720.2-3270.3-722.7-3277.6-722.7z"/>
			<path d="M-3193.1-721.5h-19.4v60.1h-7.9v-60.1h-19.4v-7.1h46.6V-721.5z"/>
			<path d="M-3146.9-661.4h-35.6v-67.2h34.1v7.1h-26.3v22.4h24.3v7.1h-24.3v23.5h27.8V-661.4z"/>
		</g>
	</g>
	<g>
		<g>
			<path d="M-3038-718.4h-19.4v60.1h-7.9v-60.1h-19.4v-7.1h46.6V-718.4z"/>
			<path d="M-2975.4-658.3h-8.7l-7.1-18.8h-28.5l-6.7,18.8h-8.8l25.8-67.2h8.2L-2975.4-658.3z M-2993.8-684.2l-10.5-28.6
				c-0.3-0.9-0.7-2.4-1-4.5h-0.2c-0.3,1.9-0.7,3.4-1.1,4.5l-10.5,28.6H-2993.8z"/>
			<path d="M-2918.7-658.3h-11l-26-30.8c-1-1.2-1.6-1.9-1.8-2.3h-0.2v33.1h-7.9v-67.2h7.9v31.6h0.2c0.4-0.7,1-1.5,1.8-2.3l25.1-29.3
				h9.8l-28.8,32.3L-2918.7-658.3z"/>
			<path d="M-2874.2-658.3h-35.6v-67.2h34.1v7.1h-26.3v22.4h24.3v7.1h-24.3v23.5h27.8V-658.3z"/>
			<path d="M-2813.1-658.3h-9.4l-11.3-18.8c-1-1.8-2-3.2-3-4.5c-1-1.2-2-2.2-3-3c-1-0.8-2.1-1.4-3.3-1.7c-1.2-0.4-2.5-0.5-4-0.5
				h-6.5v28.6h-7.9v-67.2h20.1c2.9,0,5.6,0.4,8.1,1.1c2.5,0.7,4.6,1.9,6.5,3.4s3.3,3.4,4.3,5.6c1,2.2,1.5,4.9,1.5,7.9
				c0,2.3-0.4,4.5-1.1,6.4c-0.7,2-1.7,3.7-3,5.2c-1.3,1.5-2.9,2.8-4.7,3.9s-3.9,1.9-6.2,2.5v0.2c1.1,0.5,2.1,1.1,2.9,1.7
				c0.8,0.6,1.6,1.4,2.4,2.3c0.8,0.9,1.5,1.9,2.2,3c0.7,1.1,1.6,2.4,2.5,3.9L-2813.1-658.3z M-2853.4-718.4v24.4h10.7
				c2,0,3.8-0.3,5.5-0.9c1.7-0.6,3.1-1.4,4.3-2.6c1.2-1.1,2.2-2.5,2.9-4.1c0.7-1.6,1-3.4,1-5.4c0-3.6-1.2-6.4-3.5-8.4s-5.7-3-10.1-3
				H-2853.4z"/>
		</g>
	</g>
</g>
<g id="Layer_4">
</g>
</svg>
