<?xml version="1.0" encoding="utf-8"?>
<!-- Generator: Adobe Illustrator 23.0.1, SVG Export Plug-In . SVG Version: 6.00 Build 0)  -->
<svg version="1.1" id="Layer_1" xmlns="http://www.w3.org/2000/svg" xmlns:xlink="http://www.w3.org/1999/xlink" x="0px" y="0px"
	 viewBox="0 0 50 50" style="enable-background:new 0 0 50 50;" xml:space="preserve">
<style type="text/css">
	.st0{fill:none;}
	.st1{fill:none;stroke:#D6D6D6;stroke-width:2;stroke-miterlimit:10;}
</style>
<rect class="st0" width="50" height="50"/>
<path class="st1" d="M30.2,35.3c0,0,4-2.3,5.1-2.9c1.1-0.6,2.2-0.7,2.8-0.3c1,0.6,9.5,6.2,10.2,6.7s1.1,1.9,0.1,3.3
	c-1,1.4-5.5,6.9-7.4,6.9c-1.9-0.1-9.8-0.2-24.8-15.2S1.1,10.9,1,9s5.5-6.4,6.9-7.4s2.8-0.6,3.3,0.1c0.6,0.8,6.1,9.2,6.7,10.2
	c0.4,0.7,0.3,1.8-0.3,2.8c-0.6,1.1-2.9,5.1-2.9,5.1s1.6,2.8,7.2,8.3C27.4,33.6,30.2,35.3,30.2,35.3z"/>
</svg>
